<?xml version="1.0" encoding="UTF-8"?>
<svg id="Layer_1" data-name="Layer 1" xmlns="http://www.w3.org/2000/svg" viewBox="0 0 485.34 498.35">
  <defs>
    <style>
      .cls-1 {
        fill: #f5d040;
      }

      .cls-2 {
        fill: #f91f1d;
      }

      .cls-3 {
        fill: #f81e1c;
      }
    </style>
  </defs>
  <path class="cls-2" d="M485.34,249.01v191l-14.96.02-.13,13.95-13.87.07-.09,14.95h-44.9s-.09,15.01-.09,15.01h-28.92s-.14,13.93-.14,13.93l-132.01.42h-14.82s-146.98-.42-146.98-.42l-.14-13.93h-28.92s-.09-15.01-.09-15.01H14.39s-.07-14.96-.07-14.96l-14.09-.07c.58-5.05-.23-9.59-.23-14.08v-175.77c0-4.87.82-9.57.23-15.21,5.34.52,9.69-.25,14.24-.25s9.6.83,14.76.22c.61-5.16-.22-10.04-.22-14.76s.74-9,.27-14.12h30.07s.01-30,.01-30h28.95s.14-13.98.14-13.98l14.85-.06.39-15.17c5.34.79,9.64-.27,13.79-.14,4.77.14,9.5.64,14.89.28v29.07s-28.98.03-28.98.03l-.06,14.94-14.94.06-.12,14.96-14.88.05-.07,13.93-13.94.07-.06,14.94-14.94.06-.06,14.94-14.98.09v72.88s15.01.06,15.01.06l-.02,14.97-14.99.09v72.88s14.98.05,14.98.05l.06-14.96,14.93-.12.09-13.91h28.95s.02-29.99.02-29.99h28.95s.08-13.98.08-13.98l14.94-.06.06-14.94,14.88-.05.12-14.95,13.93-.07.07-13.94,14.94-.06.06-14.94,14.94-.06.06-14.94,14.94-.06.07-13.94,13.97-.08v-29.94s29.97,0,29.97,0l.06,14.95,13.94.06.26,14.94,14.79.07v28.92s14.95.07,14.95.07l.06,14.94,14.94.06.07,13.94,13.94.07.06,14.94,14.94.06.06,14.94,14.94.06.08,13.97h28.92s.14,14.96.14,14.96l14.87.07.17,14.83,13.84.18.08,13.95h29.96s0,29.98,0,29.98l15-.04v-73.87s-14.98-.09-14.98-.09l-.07-13.94-14.94-.06-.06-14.94-14.97-.12v-14.92s29.96,0,29.96,0l.04,14.95h15.01s0-58.89,0-58.89l-14.97-.08-.13-13.96-14.87-.04-.04-14.88-14.96-.12-.06-14.93-13.94-.07-.07-13.94-14.94-.06-.06-14.94-14.94-.06-.07-14.97h-28.95s-.02-28.99-.02-28.99h-28.99s-.01-28.98-.01-28.98l-14.96-.06-.05-14.94-14.94-.02-.05-28.96-14.96-.07-.23-14.98-13.82-.04.03-43.9-14.98-.03-.07,14.9-14.96.13v28.92s-13.98.08-13.98.08l-.06,14.94-14.97.07v28.92s-14.97.07-14.97.07l-.06,14.94-14.97.07v28.97s-29.07,0-29.07,0c.42-5.39-.2-10.13-.27-14.89-.06-4.48.83-9.03.23-14.09l15.09-.07.05-14.94,13.97-.08v-28.92s14.97-.07,14.97-.07l.06-14.94,14.97-.07v-28.92s14.97-.07,14.97-.07l.06-14.94,13.97-.08V0s29.99,0,29.99,0v28.96s13.98.08,13.98.08l.06,14.94,14.97.07v28.92s14.97.07,14.97.07l.06,14.94,14.97.07v28.92s13.97.08,13.97.08l.06,14.93,14.94.06.07,13.94,14.94.06.07,14.97h28.95s.02,28.99.02,28.99l28.98.02.02,29.98h29.95s.08,13.98.08,13.98l14.94.06.07,14.98h28.96ZM161.34,351.97v14.06s30,.02,30,.02v-14.06s-30-.02-30-.02ZM309.34,352.01h-30v14.03h30v-14.03ZM264.52,410.04l29.78-.02.05,14.87,14.96.15.07,14.98h28.97s0-30,0-30h-28.96s-.08-13.98-.08-13.98l-14.94-.06-.07-14.97h-29.92s-.1-15.01-.1-15.01h-57.89s-.14,14.98-.14,14.98l-29.91.08-.03,28.95h-43.99s0,30.01,0,30.01l29.01-.12.03-14.85,14.89-.05.11-14.99,29.9-.04.12-13.97h57.88s.23,14.04.23,14.04Z"/>
  <rect class="cls-2" x="220.34" y="132" width="30" height="29"/>
  <polygon class="cls-2" points="220.34 161.01 220.34 190 191.34 190.01 191.36 176.03 206.32 175.98 206.37 161.02 220.34 161.01"/>
  <polygon class="cls-2" points="279.34 190.01 264.31 189.95 264.31 176.04 250.4 176.01 250.34 161.01 279.34 161.01 279.34 190.01"/>
  <polygon class="cls-2" points="191.34 190.01 191.35 219.96 176.38 220.03 176.31 233.98 161.34 234.01 161.35 205.04 176.31 204.98 176.37 190.02 191.34 190.01"/>
  <polygon class="cls-2" points="309.34 220.01 279.35 220 279.34 190.01 294.31 190.03 294.37 204.98 309.33 205.03 309.34 220.01"/>
  <polygon class="cls-2" points="411.34 322.01 382.39 322.01 382.33 308.09 367.37 307.97 367.32 293.04 353.37 292.97 353.31 278.03 338.38 277.98 338.31 264.03 323.37 263.98 323.32 249.04 309.34 248.96 309.34 220.01 323.31 220.02 323.38 233.98 338.31 234.03 338.44 248.96 353.31 249.04 353.45 263.88 367.31 264.05 367.35 277.92 382.31 278.04 382.37 292.98 397.31 293.03 397.37 307.97 411.32 308.04 411.34 322.01"/>
  <polygon class="cls-2" points="161.34 234.01 161.33 248.98 147.34 249.01 147.41 234 161.34 234.01"/>
  <polygon class="cls-2" points="147.34 249.01 147.32 263.97 132.34 264.01 132.36 249.03 147.34 249.01"/>
  <path class="cls-2" d="M132.34,264.01l-.02,13.98-14.98.02.02-14.01c5.38.18,10.15.02,14.98,0Z"/>
  <polygon class="cls-2" points="117.34 278.01 117.33 292.97 103.37 293.04 103.31 307.98 88.38 308.03 88.31 321.98 73.37 322.03 73.3 337.01 44.34 337.01 44.36 322.03 59.31 321.98 59.38 308.04 73.36 307.92 73.38 293.04 88.27 293.04 88.39 278.01 117.34 278.01"/>
  <polygon class="cls-1" points="264.52 410.04 264.29 396 206.41 395.99 206.29 409.97 176.38 410.01 176.27 425 161.38 425.05 161.35 439.9 132.34 440.02 132.34 410 176.33 410.01 176.35 381.05 206.27 380.98 206.4 365.99 264.29 365.99 264.38 381 294.31 381.01 294.37 395.98 309.31 396.03 309.38 410 338.35 410.01 338.35 440.01 309.38 440.02 309.31 425.04 294.36 424.89 294.3 410.01 264.52 410.04"/>
  <rect class="cls-1" x="169.31" y="344.01" width="14.06" height="30.01" transform="translate(-182.79 535.11) rotate(-89.96)"/>
  <rect class="cls-1" x="279.34" y="352.01" width="30" height="14.03"/>
  <path class="cls-3" d="M29,234.13c0,4.72.83,9.59.22,14.76-5.16.61-10.04-.21-14.76-.22l-.11-14.64,14.64.11Z"/>
  <g>
    <path class="cls-1" d="M411.34,322.01l-.03-13.97-13.94-.07-.06-14.94-14.94-.06-.06-14.94-14.96-.12-.05-13.88-13.85-.16-.15-14.84-14.87-.09-.13-14.92-14.93-.06-.07-13.96-13.97-.02v-14.97s-14.97-.06-14.97-.06l-.06-14.95-14.97-.02v-29s-29,0-29,0v-29s-30,0-30,0v29s-13.97.01-13.97.01l-.06,14.96-14.96.06-.02,13.97h-14.97s-.06,14.97-.06,14.97l-14.96.07v28.96s-13.94,0-13.94,0l-.06,15.01-14.98.03-.02,14.97c-4.83.01-9.6.17-14.98,0l-.02,14.01h-28.96s-.12,15.04-.12,15.04h-14.89s-.02,14.87-.02,14.87l-13.98.12-.07,13.93-14.95.06-.02,14.97-15.01-.06v-72.88s14.98-.09,14.98-.09l.06-14.94,14.94-.06.06-14.94,13.94-.07.07-13.93,14.88-.05.12-14.96,14.94-.06.06-14.94,28.97-.03v-29.07c-5.39.36-10.12-.14-14.88-.28l-.11-14.64,14.64.11c.07,4.76.7,9.5.27,14.89h29.07s0-28.97,0-28.97l14.97-.07.06-14.94,14.97-.07v-28.92s14.97-.07,14.97-.07l.06-14.94,13.97-.08v-28.92s14.97-.13,14.97-.13l.07-14.9,14.98.03-.03,43.9,13.82.04.23,14.98,14.96.07.05,28.96,14.94.02.05,14.94,14.96.06v28.97s29.01.01,29.01.01l.02,28.97h28.95s.07,14.98.07,14.98l14.94.06.06,14.94,14.94.06.07,13.94,13.94.07.06,14.93,14.96.12.04,14.88,14.87.04.13,13.96,14.97.08v58.89s-15.01,0-15.01,0l-.04-14.95h-29.96Z"/>
    <polygon class="cls-1" points="250.34 161.01 250.4 176.01 264.31 176.04 264.31 189.95 279.34 190.01 279.35 220 309.34 220.01 309.34 248.96 323.32 249.04 323.37 263.98 338.31 264.03 338.38 277.98 353.31 278.03 353.37 292.97 367.32 293.04 367.37 307.97 382.33 308.09 382.39 322.01 411.34 322.01 411.34 336.92 426.31 337.04 426.37 351.98 441.31 352.03 441.38 365.97 456.35 366.07 456.35 439.94 441.35 439.98 441.34 410.01 411.38 410 411.31 396.05 397.47 395.87 397.31 381.04 382.44 380.96 382.3 366.01 353.39 366 353.31 352.03 338.37 351.98 338.31 337.03 323.37 336.98 323.32 322.04 309.38 321.97 309.31 308.03 294.37 307.98 294.32 293.04 279.36 292.97 279.37 264.05 264.57 263.98 264.31 249.04 250.37 248.97 250.31 234.02 220.35 234.02 220.34 263.96 206.38 264.04 206.31 277.98 191.37 278.03 191.31 292.98 176.37 293.03 176.31 307.98 161.38 308.03 161.31 321.97 147.38 322.04 147.25 336.99 132.37 337.04 132.31 351.98 117.38 352.03 117.3 366 88.35 366.01 88.33 395.99 59.39 396 59.3 409.91 44.37 410.04 44.32 424.99 29.34 424.94 29.33 352.07 44.33 351.97 44.34 337.01 73.3 337.01 73.37 322.03 88.31 321.98 88.38 308.03 103.31 307.98 103.37 293.04 117.33 292.97 117.34 278.01 132.32 277.98 132.34 264.01 147.32 263.97 147.34 249.01 161.33 248.98 161.34 234.01 176.31 233.98 176.38 220.03 191.35 219.96 191.34 190.01 220.34 190 220.34 161.01 250.34 161.01"/>
  </g>
  <rect class="cls-3" x="117.36" y="146.02" width="15" height="14.92"/>
  <rect class="cls-3" x="124.84" y="146.02" width="15" height="14.92"/>
  <rect class="cls-3" x="117.36" y="153.48" width="15" height="14.92"/>
</svg>