<?xml version="1.0" encoding="UTF-8"?>
<svg id="Layer_1" data-name="Layer 1" xmlns="http://www.w3.org/2000/svg" viewBox="0 0 595 853">
  <defs>
    <style>
      .cls-1 {
        fill: #f5d13e;
      }

      .cls-2 {
        fill: #d40000;
      }
    </style>
  </defs>
  <path class="cls-2" d="M405,201l.03,11.96,10.97.04.03,11.96,11.93.08.08,11.92,11.92.08.08,11.92,11.92.08.08,11.92,11.91.08.09,10.92,11.91.08.08,11.92,11.92.08.09,11.96h23.9s.09,11.96.09,11.96l11.92.08.08,11.91,10.92.1.09,11.9,11.96.24v354.63s-11.96.24-11.96.24l-.09,11.9-10.92.1-.08,11.91-11.92.08-.08,11.92-11.92.08-.08,11.92-11.91.08-.19,10.98h-23.8s-.1,11.97-.1,11.97h-23.9s-.1,12-.1,12l-23.9.02-.11,11.99h-34.89s-.19,12-.19,12h-166.74s-.19-12.01-.19-12.01h-35.88s-.11-11.98-.11-11.98h-22.81s-.19-12.01-.19-12.01h-23.9s-.09-11.99-.09-11.99h-11.96s-.04-10.99-.04-10.99l-11.96-.03-11.96-.03-.08-11.93-11.92-.08-.08-11.92-11.92-.08-.08-11.92-11.92-.08-.09-11.93c-3.74-.21-7.03.66-10.96-.23v-354.6s10.96-.25,10.96-.25l.09-11.9,11.92-.08.09-11.95h23.9s.09-11.96.09-11.96l11.92-.1.09-11.9,11.92-.08.08-11.92,11.91-.08.1-10.92,11.91-.08.08-11.92,11.92-.08.08-11.92,11.92-.08.08-11.91,10.92-.09.08-11.91,11.92-.08.08-11.92,11.95-.09v-22.9s11.97-.09,11.97-.09l.08-11.92,11.92-.08.08-11.92,11.95-.09v-23.9s11.96-.09,11.96-.09l.08-11.92,11.92-.08.04-10.96,11.97-.03.03-11.97.03-11.96,11.96-.09.02-23.92,22.98-.02.02,23.94,11.95.09.08,11.92,11.95.09v22.88s11.97.11,11.97.11l.08,11.92,11.95.09v23.9s11.96.09,11.96.09l.08,11.92,11.92.08.08,11.92,11.92.08.08,11.92,11.92.08.04,10.96ZM226,296v23.95s-11.96.09-11.96.09l-.08,11.92-11.92.08-.08,11.89-11.91.11-.09,10.92-11.91.09-.08,11.91-10.92.09-.08,11.91-11.92.08-.08,11.92-11.92.08-.09,11.95h-23.9s-.09,11.97-.09,11.97l-11.91.08-.09,10.92-11.91.09-.08,11.9-11.97.12v59.91s23.96.03,23.96.03l.09-11.97,11.92-.08.08-11.92,11.92-.08.09-11.95h23.9s.11-11.9.11-11.9l11.9-.17.09-11.89,10.92-.1.08-11.91,11.83-.08.18-10.92,11.83-.11.17-11.89,11.91-.1.08-11.92,11.92-.08.08-11.94,11.92-.09.08-11.89,11.92-.08.08-11.92,11.95-.09.02-22.9,11.66-.14c.77-4.07.08-7.73.37-11.87l11.92-.08.09-11.97h22.9s.09,11.97.09,11.97l11.92.08.08,11.92,11.92.09.26,11.74,11.77.26.02,22.9,11.95.09.08,11.92,11.92.08.08,11.92,11.92.09.08,11.91,11.92.08.08,11.92,11.91.08.09,10.91,10.91.09.08,11.91,11.92.08.09,11.95h23.9s.09,11.96.09,11.96l11.92.08.08,11.92,11.91.08.17,11.9,11.84.1.09,11.95h23.9s.1,10.96.1,10.96c4.05.18,7.61.32,11.95-.1l.02-70.81-23.96-.04-.09-11.95-11.91-.08-.1-10.92-11.89-.17-.1-11.83-11.9-.16-.11-11.87-23.9-.02-.09-11.95-11.92-.08-.08-11.91-11.92-.09-.08-11.91-10.91-.09-.09-10.92-11.91-.08-.08-11.92-11.95-.09v-23.9s-11.89-.11-11.89-.11l-.17-11.9-11.91-.08-.08-11.92-11.92-.08-.08-11.91-11.94-.1c-.23-3.75.35-7.08-.28-10.74l-11.73-.26v-23.9s-11.88-.11-11.88-.11l-.17-11.92h-22.9s-.17,11.9-.17,11.9c-4.39.37-8.14.08-11.88.08v-23.95s11.96-.09,11.96-.09l.09-11.94h22.83s.25,11.9.25,11.9l11.82.11.17,11.93,11.89.07v23.93s11.95.09,11.95.09l.08,11.89,11.91.08.1,10.94,11.91.08.08,11.92,11.91.09.16,11.89,11.88.11v23.9s11.88.11,11.88.11l.17,11.89,10.91.1.08,11.91,11.91.08.1,10.91,11.89.17.11,11.88h23.9s.09,11.96.09,11.96l11.92.08.08,11.92,11.92.08.08,11.92,11.92.08.1,11.99,23.95-.05v-59.92s-11.96-.11-11.96-.11l-.1-10.91-11.91-.07-.08-11.92-11.92-.09-.08-11.92-11.92-.08-.08-11.92-11.92-.08-.08-11.92-11.92-.08-.08-11.91-11.92-.09-.08-11.92-11.91-.08-.09-10.92-11.91-.08-.08-11.91-10.92-.1-.08-11.9-11.92-.09-.08-11.92-11.95-.09v-23.9s-11.88-.11-11.88-.11l-.18-10.9-11.91-.08-.08-11.92-11.95-.09v-23.9s-11.97-.09-11.97-.09l-.08-11.92-11.95-.09v-23.89s-11.96-.1-11.96-.1l-.1-10.97h-22.93s-.02,22.96-.02,22.96l-11.95.09-.08,11.92-11.95.09v23.9s-11.96.09-11.96.09l-.08,11.92-11.92.08-.08,11.89-11.95.1v22.9s-11.97.11-11.97.11l-.17,11.91-11.84.11-.08,11.91-11.92.1-.08,11.9-11.92.08-.08,11.91-10.91.09-.18,10.89-11.86.11-.02,23.93-23.94.02-.09,11.96-11.92.08-.08,11.92-11.92.08-.08,11.92-11.92.08-.08,11.91-11.97.12v70.83s11.97.05,11.97.05l.08-11.92,11.92-.08.08-11.92,11.92-.08.09-11.95h23.9s.09-11.97.09-11.97l11.92-.09.08-11.89,11.91-.09.09-10.94,10.91-.1.08-11.87,11.92-.09.08-11.92,11.92-.08.08-11.92,11.92-.11.17-11.88,11.88-.05ZM155,675h-23.87s-.18-11.99-.18-11.99l-11.91-.08-.1-10.89-11.91-.08-.08-11.92-11.92-.08-.08-11.93-11.97.05v58.85s11.97.11,11.97.11l.08,11.91,11.95.15.06,11.91h23.9s.09,11.95.09,11.95l11.92.08.09,11.97h23.9s.11,10.98.11,10.98h34.88s.12,12.03.12,12.03l47.87-.02.18,12,94.79.02.16-12.01,47.87.04.13-12.04h34.88s.12-10.99.12-10.99h23.89s.09-11.98.09-11.98l11.92-.09.09-11.93h23.9s.09-11.96.09-11.96l11.91-.08.08-11.92,11.92-.08.08-11.91,11.97-.11v-58.85s-11.97-.05-11.97-.05l-.08,11.91-11.92.1-.08,11.93-11.92.08-.08,11.93-11.96.03v-23.95s11.96-.1,11.96-.1l.08-11.9,11.84-.1.17-11.89,11.91-.09.08-11.92,11.97-.12v-58.85s-11.97-.12-11.97-.12l-.08-11.91-11.92-.08-.09-11.94h-23.9s-.1-10.98-.1-10.98l-11.91-.08-.08-11.92-11.92-.08-.08-11.91-11.92-.09-.09-11.95h-23.9s-.09-11.96-.09-11.96l-10.92-.09-.08-11.91-11.92-.08-.08-11.92-11.91-.08-.09-10.92-11.91-.08-.08-11.92-11.92-.08-.08-11.91-11.91-.09-.16-11.9-11.84-.12-.06-23.88-11.94-.1-.09-10.93-11.91-.07-.09-11.97h-22.9s-.09,11.97-.09,11.97l-11.95.09-.02,22.91-11.77.27-.35,11.68-11.83.11-.09,11.94-11.91.09-.17,11.89-11.84.1-.08,11.91-11.91.08-.1,10.92-11.91.08-.08,11.89-11.92.09-.08,11.94-11.91.08-.16,11.91-10.84.1-.09,11.95h-23.9s-.09,11.97-.09,11.97l-11.92.09-.08,11.91-11.91.08-.1,10.91-11.89.17-.11,11.87-23.96.05v82.87s11.97.13,11.97.13l.08,11.91,11.92.08.08,11.92,11.92.08.08,11.92,11.92.08.08,11.93,11.91.07.09,10.92,11.92.1.03,11.94Z"/>
  <polygon class="cls-2" points="274 237 274 260.95 262.05 261.04 261.95 271.96 250.04 272.04 249.96 283.96 238.04 284.04 237.89 296 226 296 226 272.05 237.95 271.96 238.05 261.04 249.96 260.96 250.04 249.04 261.96 248.96 262.04 237.02 274 237"/>
  <polygon class="cls-2" points="476 652 475.97 662.96 464.04 663.04 463.95 675 440 675 440.04 663.04 451.95 662.96 452.06 652 476 652"/>
  <polygon class="cls-2" points="440 675 439.95 686.86 428.04 687.04 427.95 698.99 405.05 699.01 404.94 711 369.06 710.99 368.88 723 226.12 723.01 225.94 711.01 190.06 711 189.93 699.05 167.05 698.98 166.96 687.05 155.04 686.96 155 675 177.95 675 178.05 687 201.95 687 202.07 699.01 249.94 698.99 250.13 710.97 356.9 711.02 357.06 699 392.94 699 393.05 687.03 415.95 687.01 416.05 674.98 440 675"/>
  <polygon class="cls-2" points="274 95 273.97 106.97 262 107 262.03 95.03 274 95"/>
  <polygon class="cls-2" points="416 213 405.03 212.96 405 201 415.97 201.04 416 213"/>
  <polygon class="cls-2" points="119 746.01 107.04 745.97 107 735 118.96 735.03 119 746.01"/>
  <path class="cls-1" d="M476,652h-23.94s-.1,10.96-.1,10.96l-11.92.08-.04,11.96-23.95-.02-.11,12.02-22.9.02-.1,11.97h-35.89s-.16,12.01-.16,12.01l-106.77-.05-.2-11.98-47.87.02-.12-12.01h-23.9s-.1-12.01-.1-12.01h-22.95s-.03-11.94-.03-11.94l-11.92-.1-.09-10.92-11.91-.07-.08-11.93-11.92-.08-.08-11.92-11.92-.08-.08-11.92-11.92-.08-.08-11.91-11.97-.13v-82.87s23.96-.05,23.96-.05l.11-11.87,11.89-.17.1-10.91,11.91-.08.08-11.91,11.92-.09.09-11.95h23.9s.09-11.96.09-11.96l10.84-.1.16-11.91,11.91-.08.08-11.94,11.92-.09.08-11.89,11.91-.08.1-10.92,11.91-.08.08-11.91,11.84-.1.17-11.89,11.91-.09.09-11.94,11.83-.11.35-11.68,11.77-.27.02-22.91,11.95-.09.09-11.97h22.9s.09,11.97.09,11.97l11.91.07.09,10.93,11.94.1.06,23.88,11.84.12.16,11.9,11.91.09.08,11.91,11.92.08.08,11.92,11.91.08.09,10.92,11.91.08.08,11.92,11.92.08.08,11.91,10.92.09.09,11.95h23.9s.09,11.97.09,11.97l11.92.09.08,11.91,11.92.08.08,11.92,11.91.08.1,10.97h23.9s.09,11.95.09,11.95l11.92.08.08,11.91,11.97.12v58.85s-11.97.12-11.97.12l-.08,11.92-11.91.09-.17,11.89-11.84.1-.08,11.9-11.96.1v23.95ZM369.18,652.03h23.78s.09-12.02.09-12.02h22.9s.09-11.96.09-11.96l11.92-.08.08-11.92,11.92-.08.08-11.92,11.92-.08.08-11.91,11.84-.1.17-11.9,11.96-.09v-22.94s-23.96-.02-23.96-.02l-.09-11.95-11.92-.08-.08-11.91-11.92-.09-.09-11.95h-22.9s-.09-11.97-.09-11.97l-11.91-.08-.09-10.92-11.91-.08-.08-11.93-11.92-.08-.09-11.91-11.92-.07-.08-11.93-11.92-.08-.08-11.92-11.92-.08-.08-11.92-11.92-.08-.08-11.92-11.91-.08-.18-10.97h-22.81s-.1,10.97-.1,10.97l-11.91.08-.08,11.92-11.92.08-.08,11.92-11.92.08-.08,11.92-11.92.08-.08,11.92-11.91.08-.18,11.86-11.83.13-.08,11.92-11.91.09-.09,10.91-11.91.09-.08,11.9-11.9.17-.11,11.89-22.9.02-.09,11.92-11.92.08-.08,11.92-11.97.1v34.89s11.97.1,11.97.1l.09,11.92,11.91.07.09,11.96h22.9s.11,11.89.11,11.89l11.9.16.08,11.91,11.92.08.1,12,35.87-.03.19,11h130.77s.29-10.98.29-10.98Z"/>
  <polygon class="cls-1" points="155 675 155.04 686.96 166.96 687.05 167.05 698.98 189.93 699.05 190.06 711 225.94 711.01 226.12 723.01 368.88 723 369.06 710.99 404.94 711 405.05 699.01 427.95 698.99 428.04 687.04 439.95 686.86 440 675 463.95 675 464.04 663.04 475.97 662.96 476 652 487.96 651.97 488.04 640.04 499.96 639.96 500.04 628.03 511.96 627.93 512.04 616.02 524.01 616.08 524.01 674.93 512.04 675.04 511.96 686.96 500.04 687.04 499.96 698.96 488.04 699.04 487.95 710.99 464.05 711.01 463.96 722.93 452.04 723.02 451.95 734.99 428.06 735 427.94 746.01 393.06 745.99 392.93 758.04 345.06 758 344.91 770.01 250.11 769.99 249.93 757.99 202.07 758.02 201.94 745.98 167.06 745.99 166.95 735.02 143.05 735.01 142.96 723.04 131.04 722.96 130.95 711.02 107.05 711.01 106.99 699.1 95.04 698.96 94.96 687.04 82.99 686.93 82.99 628.08 94.96 628.03 95.04 639.96 106.96 640.04 107.04 651.96 118.95 652.04 119.05 662.93 130.95 663.01 131.13 675 155 675"/>
  <polygon class="cls-1" points="274 237 262.04 237.02 261.96 248.96 250.04 249.04 249.96 260.96 238.05 261.04 237.95 271.96 226 272.05 226 296 214.12 296.05 213.96 307.93 202.04 308.04 201.96 319.96 190.04 320.04 189.96 331.96 178.04 332.05 177.96 343.92 167.04 344.02 166.95 354.96 155.04 355.05 154.96 366.95 143.04 367.03 142.95 378.99 119.05 379.01 118.96 390.96 107.04 391.04 106.96 402.96 95.04 403.04 94.96 414.96 82.99 414.91 82.99 344.08 94.96 343.96 95.04 332.04 106.96 331.96 107.04 320.04 118.96 319.96 119.04 308.04 130.96 307.96 131.05 296 154.99 295.98 155.01 272.05 166.87 271.94 167.05 261.05 177.96 260.95 178.04 249.04 189.96 248.96 190.04 237.06 201.96 236.96 202.04 225.05 213.88 224.94 214.04 213.04 225.99 212.92 226.01 190.03 237.96 189.93 238.04 178.04 249.96 177.96 250.04 166.04 261.99 165.95 262.01 142.05 273.96 141.96 274.04 130.04 285.99 129.95 286.01 107 308.95 106.99 309.05 117.96 320.99 118.06 321.01 141.95 332.96 142.04 333.04 153.96 344.99 154.05 345.01 177.95 356.96 178.03 357.04 189.96 368.95 190.04 369.13 200.94 380.99 201.05 381.01 224.95 392.96 225.04 393.04 236.96 404.96 237.05 405.04 248.95 415.96 249.05 416.04 260.96 427.95 261.04 428.05 271.96 439.96 272.04 440.04 283.96 451.96 284.05 452.04 295.96 463.96 296.04 464.04 307.96 475.96 308.04 476.04 319.96 487.96 320.04 488.04 331.96 499.96 332.05 500.04 343.97 511.95 344.04 512.05 354.96 524.01 355.07 524.01 414.99 500.05 415.04 499.96 403.04 488.04 402.96 487.96 391.04 476.04 390.96 475.96 379.04 464.04 378.96 463.95 367.01 440.05 367 439.94 355.12 428.05 354.95 427.95 344.04 416.04 343.96 415.96 332.05 405.04 331.95 404.88 320.06 393.01 319.95 393 296.05 381.12 295.95 380.96 284.05 369.04 283.96 368.96 272.04 357.05 271.96 356.95 261.02 345.04 260.93 344.96 249.04 333.01 248.95 333.01 225.02 321.12 224.95 320.95 213.02 309.13 212.92 308.88 201.02 286.05 201.02 285.96 212.96 274 213.05 274 237"/>
  <path class="cls-1" d="M226,296h11.89s.15-11.96.15-11.96l11.91-.08.08-11.92,11.91-.08.09-10.92,11.95-.09v-23.95c3.73,0,7.49.29,11.87-.08l.17-11.9h22.9s.17,11.92.17,11.92l11.87.11v23.9s11.75.26,11.75.26c.63,3.66.04,6.99.28,10.74l11.94.1.08,11.91,11.92.08.08,11.92,11.91.08.17,11.9,11.87.11v23.9s11.96.09,11.96.09l.08,11.92,11.91.08.09,10.92,10.91.09.08,11.91,11.92.09.08,11.91,11.92.08.09,11.95,23.9.02.11,11.87,11.9.16.1,11.83,11.89.17.1,10.92,11.91.08.09,11.95,23.96.04-.02,70.81c-4.34.42-7.9.29-11.95.1l-.1-10.95h-23.9s-.09-11.96-.09-11.96l-11.84-.1-.17-11.9-11.91-.08-.08-11.92-11.92-.08-.09-11.95h-23.9s-.09-11.96-.09-11.96l-11.92-.08-.08-11.91-10.91-.09-.09-10.91-11.91-.08-.08-11.92-11.92-.08-.08-11.91-11.92-.09-.08-11.92-11.92-.08-.08-11.92-11.95-.09-.02-22.9-11.77-.26-.26-11.74-11.92-.09-.08-11.92-11.92-.08-.09-11.97h-22.9s-.09,11.97-.09,11.97l-11.92.08c-.29,4.14.4,7.8-.37,11.87l-11.66.14-.02,22.9-11.95.09-.08,11.92-11.92.08-.08,11.89-11.92.09-.08,11.94-11.92.08-.08,11.92-11.91.1-.17,11.89-11.83.11-.18,10.92-11.83.08-.08,11.91-10.92.1-.09,11.89-11.9.17-.11,11.89h-23.9s-.09,11.96-.09,11.96l-11.92.08-.08,11.92-11.92.08-.09,11.97-23.96-.03v-59.91s11.97-.12,11.97-.12l.08-11.9,11.91-.09.09-10.92,11.91-.08.09-11.97h23.9s.09-11.95.09-11.95l11.92-.08.08-11.92,11.92-.08.08-11.91,10.92-.09.08-11.91,11.91-.09.09-10.92,11.91-.11.08-11.89,11.92-.08.08-11.92,11.96-.09v-23.95Z"/>
  <g>
    <path class="cls-2" d="M369.18,652.03l-.29,10.98h-130.77s-.19-11-.19-11l-35.87.03-.1-12-11.92-.08-.08-11.91-11.9-.16-.11-11.87h-22.9s-.09-11.97-.09-11.97l-11.91-.07-.09-11.92-11.97-.1v-34.89s11.97-.1,11.97-.1l.08-11.92,11.92-.08.09-11.92,22.9-.02.11-11.89,11.9-.17.08-11.9,11.91-.09.09-10.91,11.91-.09.08-11.92,11.83-.13.18-11.86,11.91-.08.08-11.92,11.92-.08.08-11.92,11.92-.08.08-11.92,11.92-.08.08-11.92,11.91-.08.1-10.97h22.81s.18,10.97.18,10.97l11.91.08.08,11.92,11.92.08.08,11.92,11.92.08.08,11.92,11.92.08.08,11.93,11.92.07.09,11.91,11.92.08.08,11.93,11.91.08.09,10.92,11.91.08.09,11.96h22.9s.09,11.96.09,11.96l11.92.09.08,11.91,11.92.08.09,11.95,23.95.02v22.94s-11.95.09-11.95.09l-.17,11.9-11.84.1-.08,11.91-11.92.08-.08,11.92-11.92.08-.08,11.92-11.92.08-.09,11.95h-22.9s-.09,12.02-.09,12.02h-23.78ZM368.98,580.13l.07,11.87,23.82.02.17,11.96h11.92s.08-11.93.08-11.93l10.94-.09-.02-11.95h-22.9s-.11-11-.11-11h-23.89s-.09-11.96-.09-11.96l-11.92-.08-.09-11.95-23.89-.06-.02-11.95h23.91s.09-12,.09-12h23.91s0-12.02,0-12.02h-23.91s-.1,12.02-.1,12.02h-35.88s-.12,12.01-.12,12.01h-46.87s-.12-12.02-.12-12.02h-35.89s-.1-11.97-.1-11.97h-11.94s0,11.93,0,11.93l11.93.08.09,11.95,23.83.02.07,11.95-23.9.06-.17,11.89-11.83.11-.08,11.94-11.91.08-.11,10.96h-35.88s-.03,11.95-.03,11.95l11.85.1.17,11.91c4.12.1,7.81.23,11.91-.08l.17-11.87,23.74-.02.24-11.94,11.74-.12.2-10.92h23.89s.13-12.01.13-12.01h70.84s.24,11.94.24,11.94l23.78.08.11,10.94,11.93.18Z"/>
    <path class="cls-1" d="M368.98,580.13l-11.93-.18-.11-10.94-23.78-.08-.24-11.93h-70.84s-.13,12-.13,12h-23.89s-.2,10.93-.2,10.93l-11.74.12-.24,11.94-23.74.02-.17,11.87c-4.11.31-7.8.18-11.91.08l-.17-11.91-11.85-.1.03-11.96h35.88s.11-10.96.11-10.96l11.91-.08.08-11.94,11.83-.11.17-11.89,23.9-.06-.07-11.95-23.83-.02-.09-11.95-11.93-.08v-11.93s11.93,0,11.93,0l.1,11.98h35.89s.12,12.01.12,12.01h46.87s.12-12.01.12-12.01h35.88s.1-12.01.1-12.01h23.91s0,12.01,0,12.01h-23.91s-.09,12-.09,12h-23.91s.02,11.96.02,11.96l23.89.06.09,11.95,11.92.08.09,11.95h23.89s.11,11,.11,11h22.9s.02,11.96.02,11.96l-10.94.09-.08,11.93h-11.92s-.17-11.96-.17-11.96l-23.82-.02-.07-11.87Z"/>
  </g>
</svg>