<?xml version="1.0" encoding="UTF-8"?>
<svg id="Layer_1" data-name="Layer 1" xmlns="http://www.w3.org/2000/svg" viewBox="0 0 549 484">
  <defs>
    <style>
      .cls-1 {
        fill: #f5d040;
      }

      .cls-2 {
        fill: #f91f1d;
      }

      .cls-3 {
        fill: #f81e1c;
      }
    </style>
  </defs>
  <path class="cls-2" d="M533.11,274.34l-.1,15.65,15.99.02v129h-31.97s-.07,17-.07,17h-32.93s-.09,15.93-.09,15.93l-32.07.41c-5.09-.63-10.18-.28-15.87-.32l.11,15.63-81.06.41-.06,15.93h-161l-.06-16.01h-80.87s-.12-16-.12-16h-47.91s-.08-15.99-.08-15.99h-32.93s-.07-17.01-.07-17.01H0s0-128.99,0-128.99l15.97-.02.05-15.96,15.95-.05.05-15.95,15.95-.05.06-15.98h32.93s.06-15.97.06-15.97l15.95-.05.05-15.95,15.95-.05.05-15.95,15.95-.05.05-15.95,15.95-.05.05-16.95,15.95-.05.05-15.95,16.95-.05.05-15.95,15.97-.06v-31.93s15.98-.06,15.98-.06l.04-15.95,16.09-.06c-.57-5.74.25-10.93.23-16.08l15.64.11c-.08-6.03.34-11.45-.33-16.87.71-5.16.16-10.35.35-16.09l15.99-.07V.02s33-.02,33-.02v31.96s15.98.06,15.98.06l.05,15.95,15.97.06v32.93s15.91.08,15.91.08l.12,15.93,15.97.06v31.93s15.92.08,15.92.08l.12,15.93,15.94.05.05,15.95,16.95.05.05,16.95,15.95.05.05,15.95,15.95.05.05,15.94,15.97.11.05,15.94,31.92.02.16,15.86,16.85.14.05,15.94,15.95.06.06,15.96c5.74.19,10.92-.35,16.08.34ZM290.99,161.03l.04,16.95,15.95.04.05,15.95,15.95.05.05,15.95,15.97.06v31.92s15.93,0,15.93,0l.1,16.01,15.94.06.05,15.94,15.94.05.12,15.99,16.88.06.07,16.92h31.93s.06,15.98.06,15.98l15.95.05.05,15.95,15.95.05.05,15.95,15.95.05.06,15.99,32.96-.02.02-63.94-15.99-.08-.05-16.95-16.95-.05-.05-15.95-15.95-.05-.05-15.95-15.95-.05-.05-15.95-15.95-.05-.05-15.94-16.03-.1.02-15.9-15.87-.1-.13-15.91-16.88-.05-.12-15.94-15.94-.05-.05-16.95-15.95-.05-.05-15.95-15.95-.05-.05-15.95-15.97-.06v-31.93s-15.99-.07-15.99-.07v-31.92s-15.94-.03-15.94-.03l-.1-17.02h-32.96s0,32.98,0,32.98l-15.97.06-.05,15.95-15.97.06v31.93s-15.98.06-15.98.06l-.05,15.95-15.94.05-.12,15.92-15.91.1-.04,32.93-16.89.05-.18,16.06-31.86-.03-.06,15.92-15.94.05-.12,15.96-15.89.04-.05,15.94-15.95.05-.05,15.95-15.95.05-.05,15.95-16.94.05-.11,16.96-15.93.08v79.88s15.98.06,15.98.06l.05-15.97,16.95-.04.05-15.95,15.95-.05.05-15.95,15.95-.05.05-15.95,15.95-.05.05-15.94,15.99-.1.02-16.95h31.93s.06-15.96.06-15.96l16.95-.04.05-15.95,15.95-.05.05-15.95,15.95-.05.05-15.95,15.94-.05.04-31.93,15.8-.03.23-15.98,15.95-.05.06-17,32.95.05ZM323.18,355.03h15.73s.17,15.94.17,15.94l15.82.08.06,15.87,32.05.09v-32s-31.97,0-31.97,0l-.06-15.97-15.95-.05-.06-15.97h-31.93s-.09-16.01-.09-16.01h-64.9s-.09-17.01-.09-17.01h-47.93s0,17.01,0,17.01h47.94s.01,15.99.01,15.99h-31.97s-.02,31.99-.02,31.99l-31.95.05-.07,15.95-16.96.04.03,15.99h48.95s.02-31.97.02-31.97l15.97-.06.1-16,96.86.02.25,16.03ZM355,290h-32v17h32v-17Z"/>
  <path class="cls-3" d="M241.66,48.12c.67,5.42.25,10.84.33,16.87l-15.64-.11c-.02-5.43-.81-10.84-.24-16.87l15.55.11Z"/>
  <polygon class="cls-1" points="290.99 161.03 258.03 160.98 257.98 177.97 242.03 178.03 241.8 194.01 226 194.04 225.96 225.97 210.02 226.03 209.97 241.97 194.03 242.03 193.97 257.97 178.03 258.03 177.97 273.98 161.03 274.02 160.96 289.99 129.04 289.98 129.02 306.93 113.03 307.03 112.97 322.97 97.03 323.03 96.97 338.97 81.03 339.03 80.97 354.97 65.03 355.03 64.97 370.98 48.03 371.02 47.97 386.99 31.99 386.94 31.99 307.06 47.92 306.99 48.03 290.02 64.97 289.98 65.03 274.03 80.97 273.97 81.03 258.03 96.97 257.97 97.03 242.03 112.92 241.99 113.03 226.03 128.97 225.97 129.03 210.05 160.9 210.08 161.08 194.03 177.97 193.98 178.01 161.04 193.91 160.95 194.03 145.03 209.97 144.97 210.03 129.03 226 128.96 226 97.04 241.97 96.97 242.03 81.03 258 80.96 258.01 47.99 290.97 47.99 291.07 65.01 307.01 65.04 307.01 96.96 323 97.04 323 128.96 338.97 129.03 339.03 144.97 354.97 145.03 355.03 160.97 370.98 161.03 371.02 177.97 386.97 178.03 387.09 193.97 403.97 194.03 404.1 209.94 419.97 210.04 419.94 225.93 435.97 226.03 436.03 241.97 451.97 242.03 452.03 257.97 467.97 258.03 468.03 273.97 483.97 274.03 484.03 289.98 500.98 290.02 501.02 306.97 517.01 307.05 516.99 371 484.04 371.01 483.97 355.02 468.03 354.97 467.97 339.03 452.03 338.97 451.97 323.03 436.03 322.97 435.96 307 404.03 307 403.97 290.08 387.09 290.02 386.97 274.03 371.03 273.97 370.97 258.04 355.03 257.97 354.93 241.97 338.99 241.96 338.99 210.04 323.03 209.97 322.97 194.03 307.03 193.97 306.97 178.03 291.02 177.98 290.99 161.03"/>
  <g>
    <polygon class="cls-1" points="323.18 355.03 322.93 338.99 226.07 338.97 225.97 354.97 210 355.04 209.99 387.01 161.04 387.01 161.01 371.02 177.97 370.98 178.04 355.03 209.99 354.99 210.01 323.01 241.98 323 241.96 306.99 194.02 307 194.03 289.99 241.96 289.99 242.05 306.99 306.95 307 307.04 323 338.96 323 339.03 338.97 354.97 339.02 355.03 355 387.01 355.01 387.01 387.01 354.96 386.92 354.9 371.05 339.08 370.97 338.92 355.04 323.18 355.03"/>
    <rect class="cls-1" x="323" y="290" width="32" height="17"/>
  </g>
</svg>