<?xml version="1.0" encoding="UTF-8"?>
<svg id="Layer_1" data-name="Layer 1" xmlns="http://www.w3.org/2000/svg" viewBox="0 0 500 782.99">
  <defs>
    <style>
      .cls-1 {
        fill: #f5d13e;
      }

      .cls-2 {
        fill: #d40000;
      }
    </style>
  </defs>
  <polygon class="cls-2" points="238 153.99 238 177.94 226.04 178.03 225.96 189.95 214.04 190.03 213.96 201.96 202 201.99 202 178.04 213.96 177.95 214.04 166.03 225.96 165.95 226.04 154.01 238 153.99"/>
  <path class="cls-2" d="M500,260.99v427l-11.96.03-.08,11.93-11.92.08-.08,11.92-11.92.08-.09,11.95h-23.9s-.1,12-.1,12h-22.9s-.11,11-.11,11h-23.89s-.11,12.01-.11,12.01h-35.88s-.14,11.99-.14,11.99l-46.86.1-.05,11.9h-120l-.06-12.01h-46.87s-.12-12-.12-12h-35.88s-.11-11.99-.11-11.99h-23.89s-.11-11-.11-11h-22.9s-.09-12.05-.09-12.05c-4.34.24-8.15-.11-11.95-.17l-.03-11.74-11.89.27c-3.82-.57-7.67-.19-12.03-.32l-.09-11.95-11.92-.08-.08-11.93-11.96-.03v-427l11.96-.03.09-11.96h23.9s.11-11.89.11-11.89l11.9-.17.08-11.91,11.92-.08.08-11.91,10.91-.09.09-10.91,11.91-.08.08-11.92c4.15.04,7.78.26,11.92-.12l.08-11.88,11.92-.08.08-11.92,11.92-.08.08-11.92,11.92-.08.08-11.92,11.92-.08.08-11.92,11.92-.08.08-11.92,11.92-.08.04-10.96,11.92-.03c.39-4.31-.09-8.07-.05-11.84l.11-12.08,10.98-.1.08-11.91,11.95-.09v-23.9s11.96-.09,11.96-.09l.08-11.92,11.95-.09V12.05s11.96-.11,11.96-.11l.09-11.94h23.84s.15,11.95.15,11.95l11.95.09v22.9s11.97.09,11.97.09l.08,11.92,11.95.09v23.9s11.96.09,11.96.09l.08,11.91,10.92.1.08,11.91,11.95.09v22.9s11.97.09,11.97.09l.08,11.92,11.92.08.08,11.92,11.92.08.08,11.92,11.92.08.08,11.92,11.92.08.08,11.92,11.92.08.08,11.88c4.14.43,7.77.12,11.92.11l.08,11.92,11.91.08.09,10.91,10.91.09.08,11.91,11.92.08.09,11.95h23.9s.09,11.96.09,11.96l11.92.08.08,11.93,11.96.03ZM202,201.99v22.95s-11.96.09-11.96.09l-.08,11.91-10.92.09-.08,11.91-11.92.08-.08,11.92-11.92.08-.08,11.92-11.92.08-.08,11.92-11.91.08-.1,10.92-11.91.08-.08,11.92-11.92.08-.08,11.92-11.92.08-.08,11.92-11.92.08-.09,11.95h-22.9s-.09,11.97-.09,11.97l-11.92.08-.08,11.91-11.97.11v58.91s23.96.03,23.96.03l.09-11.97,10.92-.09.08-11.91,11.92-.08.09-11.95h23.89s.1-10.97.1-10.97l11.91-.08.08-11.92,11.92-.08.08-11.92,11.92-.08.08-11.92,11.92-.08.08-11.92,11.92-.08.08-11.92,11.92-.08.08-11.91,10.92-.09.08-11.91,11.91-.08.09-10.92,11.91-.08.08-11.97h11.96s0,22.96,0,22.96l-11.96.09-.08,11.92-11.92.08-.08,11.92-11.92.08-.08,11.91-10.92.09-.08,11.91-11.92.08-.08,11.92-11.92.08-.08,11.92-11.92.08-.08,11.92-11.91.08-.09,10.92-11.91.08-.08,11.92-11.92.08-.09,11.95h-23.9s-.17,11.97-.17,11.97l-11.84.08-.08,11.91-10.92.09-.09,11.94-23.96.05v82.88s11.97.13,11.97.13l.04,11.96-12.01.07v58.86s11.97.12,11.97.12l.08,11.91,11.93.08.03,11.96-24.01.03v46.9s11.97.11,11.97.11l.08,11.92,11.92.08.08,11.91,10.92.09.09,11.94h23.9s.1,12,.1,12h23.9s.2,12.05.2,12.05l35.79-.05.25,11.09,70.73-.11.17,12.09h47.87s.12-12.09.12-12.09l70.83.02.15-11.02h35.88s.11-11.99.11-11.99h23.9s.1-12,.1-12h23.9s.09-11.96.09-11.96l10.92-.09.09-11.94,23.96-.04v-58.9s-11.97-.05-11.97-.05l-.09,11.98h-22.95s.04-11.95.04-11.95l10.92-.09.09-11.95,23.96-.04v-70.88s-12.01-.08-12.01-.08l.03-11.96,11.98-.13v-82.88s-23.96-.05-23.96-.05l-.09-11.94-10.92-.09-.08-11.91-11.92-.08-.08-11.92-11.92-.08-.09-11.95h-23.9s-.09-11.96-.09-11.96l-11.91-.08-.09-10.92-11.91-.08-.08-11.92-11.92-.08-.08-11.92-11.92-.08-.08-11.92-11.92-.08-.08-11.91-10.92-.09-.08-11.91-11.92-.08-.08-11.92-11.92-.08-.08-11.92-11.96-.09v-22.95s11.96,0,11.96,0l.08,11.96,11.91.08.09,10.92,11.91.08.08,11.91,10.92.09.08,11.91,11.92.08.08,11.92,11.92.08.08,11.92,11.92.08.08,11.92,11.92.08.08,11.92,11.92.08.08,11.92,11.91.08.1,10.95h23.89s.09,11.96.09,11.96l11.92.08.08,11.91,10.92.09.09,11.96,23.96-.03v-58.91s-11.97-.12-11.97-.12l-.08-11.91-11.92-.08-.08-11.91-10.92-.09-.08-11.91-23.91-.03-.09-11.97-11.92-.08-.08-11.92-11.92-.08-.08-11.92-11.91-.08-.09-10.92-11.91-.08-.08-11.92-11.92-.08-.08-11.92-11.92-.08-.08-11.92-11.92-.08-.08-11.91-10.92-.1-.08-11.91-11.96-.09v-22.95s11.96.03,11.96.03l.09,10.92,10.91.09.08,11.91,11.92.08.08,11.92,11.92.08.08,11.92,11.92.08.08,11.92,11.92.08.08,11.92,11.92.08.08,11.92,11.91.08.09,10.92,11.91.08.08,11.92,11.92.08.09,11.95h22.9s.09,11.97.09,11.97l11.92.08.08,11.94,11.97-.07v-70.83s-11.97-.12-11.97-.12l-.08-11.91-11.92-.08-.09-11.93-22.82.04-.17-12.03-11.91-.08-.08-11.92-11.92-.08-.08-11.92-11.91-.08-.09-10.92-11.95-.09v-23.9s-11.96-.09-11.96-.09l-.08-11.92-11.92-.08-.08-11.92-11.92-.08-.08-11.92-11.92-.08-.08-11.91-10.95-.1v-22.9s-11.97-.09-11.97-.09l-.08-11.92-11.92-.08-.08-11.92-11.95-.09v-23.9s-11.96-.08-11.96-.08l-.09-11.97h-23.9s-.09,11.97-.09,11.97l-11.95.09v23.9s-11.97.09-11.97.09l-.08,11.92-11.95.09v22.9s-11.97.09-11.97.09l-.08,11.91-10.92.1-.08,11.91-11.92.08-.08,11.92-11.91.08-.17,11.88c-4.2.39-7.77.01-11.83.12l-.08,11.93-11.95.09v23.9s-11.96.09-11.96.09l-.09,10.92-11.91.08-.08,11.92-11.92.08-.08,11.92-11.91.08-.18,11.98h-22.82s-.09,11.94-.09,11.94l-11.92.08-.08,11.91-11.97.12v70.83s11.97.07,11.97.07l.08-11.94,11.92-.08.09-11.95h22.9s.09-11.97.09-11.97l11.92-.08.08-11.92,11.91-.08.09-10.92,11.91-.08.08-11.92,11.92-.08.08-11.92,11.92-.08.08-11.92,11.92-.08.08-11.92,11.92-.08.08-11.92,11.92-.08.08-11.91,10.91-.09.09-10.92,11.95-.03Z"/>
  <polygon class="cls-2" points="429 640.99 428.97 651.97 417 651.99 417.04 641.01 429 640.99"/>
  <path class="cls-2" d="M321,640.99c-.02,4.05.23,7.25-.14,11.01h-141.74c-.34-4.04-.11-7.52-.13-11.01h142Z"/>
  <rect class="cls-2" x="238" y="129.99" width="24" height="24"/>
  <polygon class="cls-2" points="405 592.99 404.96 604.97 393 604.99 393.03 593.02 405 592.99"/>
  <polygon class="cls-2" points="83 651.99 71.04 651.96 71 640.99 82.96 641.03 83 651.99"/>
  <polygon class="cls-2" points="298 201.99 286.04 201.96 285.96 190.03 274.04 189.95 273.96 178.04 262 177.94 262 153.99 273.96 154.02 274.04 165.95 285.96 166.03 286.04 177.95 298 178.04 298 201.99"/>
  <path class="cls-2" d="M274,272.99l-11.96-.04-.09-11.97h-23.9s-.09,11.93-.09,11.93c-4.32.38-8.15.08-11.96.08v-23.95s11.96-.09,11.96-.09l.09-11.97h23.9s.09,11.97.09,11.97l11.96.09v23.95Z"/>
  <polygon class="cls-2" points="179 640.99 155.04 641 155 628.99 178.95 628.99 179 640.99"/>
  <polygon class="cls-2" points="71 640.99 60.03 640.96 60 628.99 70.97 629.03 71 640.99"/>
  <polygon class="cls-2" points="369 616.99 368.96 628.95 357.04 629.03 356.94 641 321 640.99 321.05 629 344.95 628.99 345.05 616.99 369 616.99"/>
  <polygon class="cls-2" points="155 628.99 131.04 629 131 616.99 154.95 616.99 155 628.99"/>
  <polygon class="cls-2" points="393 604.99 392.95 617 369 616.99 369.04 604.99 393 604.99"/>
  <polygon class="cls-2" points="131 616.99 107.04 617 107 604.99 130.95 604.99 131 616.99"/>
  <polygon class="cls-2" points="60 557.99 48.03 557.96 48 545.99 59.96 546.01 60 557.99"/>
  <polygon class="cls-2" points="452 545.99 451.96 557.96 440 557.99 440.03 546.02 452 545.99"/>
  <polygon class="cls-2" points="71 568.99 60.03 568.95 60 557.99 70.97 558.03 71 568.99"/>
  <polygon class="cls-2" points="440 557.99 439.96 568.96 429 568.99 429.03 558.03 440 557.99"/>
  <polygon class="cls-2" points="95 592.99 71.01 592.98 71 568.99 82.96 569.02 83.04 580.95 94.96 581.03 95 592.99"/>
  <polygon class="cls-2" points="429 568.99 428.99 592.99 405 592.99 405.03 581.03 416.96 580.95 417.04 569.03 429 568.99"/>
  <polygon class="cls-2" points="107 604.99 95.09 604.96 95 592.99 106.96 593.02 107 604.99"/>
  <polygon class="cls-2" points="107 663.99 83.05 664 83 651.99 106.96 652 107 663.99"/>
  <polygon class="cls-2" points="417 651.99 416.96 663.99 393 663.99 393.05 651.99 417 651.99"/>
  <polygon class="cls-2" points="131 675.99 107.05 675.99 107 663.99 130.96 663.99 131 675.99"/>
  <path class="cls-2" d="M393,663.99l-.03,11.93c-4.1.35-7.62-.04-12.07-.02l.09-11.88,12-.02Z"/>
  <polygon class="cls-2" points="155 687.99 131.05 688 131 675.99 154.96 675.97 155 687.99"/>
  <path class="cls-2" d="M380.9,675.9c-.03,3.85.34,7.67.02,12.1h-35.92s.06-12,.06-12l35.84-.11Z"/>
  <polygon class="cls-2" points="190.12 699.87 155.06 699.94 155 687.99 189.97 687.99 190.12 699.87"/>
  <polygon class="cls-2" points="345 687.99 344.95 699.96 309.91 699.9 310.03 687.98 345 687.99"/>
  <path class="cls-2" d="M309.91,699.9c-.04,3.84.39,7.7-.04,12.1h-119.75c-.43-4.12.05-7.67,0-12.13l119.79.03Z"/>
  <path class="cls-1" d="M298,201.99v-23.95s-11.96-.09-11.96-.09l-.08-11.92-11.92-.08-.08-11.93-11.96-.03v-24s-24,0-24,0v24s-11.96.02-11.96.02l-.08,11.94-11.92.08-.08,11.92-11.96.09v23.95s-11.95.03-11.95.03l-.09,10.92-10.91.09-.08,11.91-11.92.08-.08,11.92-11.92.08-.08,11.92-11.92.08-.08,11.92-11.92.08-.08,11.92-11.92.08-.08,11.92-11.91.08-.09,10.92-11.91.08-.08,11.92-11.92.08-.09,11.95h-22.9s-.09,11.97-.09,11.97l-11.92.08-.08,11.94-11.97-.07v-70.83s11.97-.12,11.97-.12l.08-11.91,11.92-.08.09-11.94h22.82s.18-11.98.18-11.98l11.91-.08.08-11.92,11.92-.08.08-11.92,11.91-.08.09-10.92,11.95-.09v-23.9s11.97-.09,11.97-.09l.08-11.93c4.07-.1,7.63.28,11.83-.12l.17-11.88,11.91-.08.08-11.92,11.92-.08.08-11.91,10.92-.1.08-11.91,11.95-.09v-22.9s11.97-.09,11.97-.09l.08-11.92,11.95-.09v-23.9s11.96-.09,11.96-.09l.09-11.97h23.9s.09,11.97.09,11.97l11.95.08v23.9s11.96.09,11.96.09l.08,11.92,11.92.08.08,11.92,11.95.09v22.9s10.97.1,10.97.1l.08,11.91,11.92.08.08,11.92,11.92.08.08,11.92,11.92.08.08,11.92,11.95.09v23.9s11.96.09,11.96.09l.09,10.92,11.91.08.08,11.92,11.92.08.08,11.92,11.91.08.17,12.03,22.82-.04.09,11.93,11.92.08.08,11.91,11.97.12v70.83s-11.97.07-11.97.07l-.08-11.94-11.92-.08-.09-11.95h-22.9s-.09-11.97-.09-11.97l-11.92-.08-.08-11.92-11.91-.08-.09-10.92-11.91-.08-.08-11.92-11.92-.08-.08-11.92-11.92-.08-.08-11.92-11.92-.08-.08-11.92-11.92-.08-.08-11.92-11.92-.08-.08-11.91-10.91-.09-.09-10.92-11.95-.03Z"/>
  <path class="cls-1" d="M48,545.99l.03,11.96,11.97.04.03,10.96,10.97.04v23.99s24,0,24,0l.09,11.96,11.91.04.04,12h23.96s.04,12,.04,12h23.96s.04,12,.04,12h23.96c.02,3.48-.21,6.96.13,11h141.74c.37-3.76.12-6.96.14-11.01h35.94s.1-11.96.1-11.96l11.92-.08.04-11.96h23.95s.05-12,.05-12l11.96-.02.04-11.98h23.99s0-24,0-24l10.96-.03.04-10.97,11.96-.03.04-11.97,12.01.08v70.88s-23.96.04-23.96.04l-.09,11.95-10.92.09-.04,11.95-11.96.02-.04,10.98h-23.95s-.05,12-.05,12l-12,.02-.09,11.88-35.84.11-.06,11.99h-34.97s-.12,11.91-.12,11.91l-119.79-.03-.15-11.89h-34.97s-.04-12.02-.04-12.02l-23.96.02-.04-12h-23.96s-.04-11.99-.04-11.99h-23.96s-.04-10.97-.04-10.97l-11.96-.04-.03-11.97-10.97-.03-.03-11.96-11.93-.08-.08-11.91-11.97-.12v-58.86s12.01-.07,12.01-.07Z"/>
  <path class="cls-1" d="M60,628.99l.03,11.97,10.97.03.04,10.97,11.96.03.05,12h23.95s.05,12,.05,12h23.95s.05,12,.05,12h23.95s.06,11.94.06,11.94l35.06-.07c.06,4.45-.42,8.01,0,12.13h119.75c.42-4.4,0-8.26.04-12.1l35.04.06.05-11.96h35.92c.32-4.42-.05-8.24-.02-12.09,4.44-.01,7.97.37,12.07.02l.03-11.93h23.96s.04-12,.04-12l11.97-.03.03-10.97h22.95s.09-11.98.09-11.98l11.97.05v58.9s-23.96.04-23.96.04l-.09,11.94-10.92.09-.09,11.95h-23.9s-.1,12-.1,12h-23.9s-.11,12.01-.11,12.01h-35.88s-.15,11.01-.15,11.01l-70.83-.02-.12,12.07h-47.87s-.17-12.08-.17-12.08l-70.73.11-.25-11.09-35.79.05-.2-12.04h-23.9s-.1-12-.1-12h-23.9s-.09-11.95-.09-11.95l-10.92-.09-.08-11.91-11.92-.08-.08-11.92-11.97-.11v-46.9s24.01-.03,24.01-.03Z"/>
  <path class="cls-1" d="M274,272.99v22.95s11.96.09,11.96.09l.08,11.92,11.92.08.08,11.92,11.92.08.08,11.91,10.92.09.08,11.91,11.92.08.08,11.92,11.92.08.08,11.92,11.92.08.08,11.92,11.91.08.09,10.92,11.91.08.09,11.95h23.9s.09,11.96.09,11.96l11.92.08.08,11.92,11.92.08.08,11.91,10.92.09.09,11.94,23.96.05v82.88s-11.98.13-11.98.13l-.03,11.96-11.97.02-.03,11.98-10.97.04-.03,10.96-11.96.04-.08,11.92-11.93.08-.03,11.96-11.97.03-.03,11.97h-23.96s-.04,12-.04,12h-23.95s-.1,12-.1,12h-23.91s-.05,12-.05,12h-142l-.05-12h-23.95s-.05-12-.05-12h-23.95s-.05-12-.05-12h-23.95s-.04-11.98-.04-11.98l-11.96-.02-.04-11.96-11.92-.08-.08-11.93-11.96-.03-.03-10.97-10.97-.03-.04-11.98-11.96-.02-.04-11.96-11.97-.13v-82.88s23.96-.05,23.96-.05l.09-11.94,10.92-.09.08-11.91,11.84-.08.17-11.96h23.9s.09-11.97.09-11.97l11.92-.08.08-11.92,11.91-.08.09-10.92,11.91-.08.08-11.92,11.92-.08.08-11.92,11.92-.08.08-11.92,11.92-.08.08-11.91,10.92-.09.08-11.91,11.92-.08.08-11.92,11.92-.08.08-11.92,11.96-.09v-22.95c3.81,0,7.63.3,11.96-.08l.09-11.93h23.9s.09,11.97.09,11.97l11.96.04ZM320.86,592.98l.2-11.95,11.9-.08.09-11.95h23.9s.1-10.96.1-10.96l11.91-.08.09-11.95h23.9s.09-11.96.09-11.96l11.95-.09v-23.9s12.01-.1,12.01-.1v-23.9s-11.97-.09-11.97-.09l-.08-11.92-11.91-.08-.1-10.96h-23.89s-.09-11.96-.09-11.96l-11.92-.08-.08-11.92-11.92-.08-.08-11.92-11.92-.08-.08-11.92-11.92-.08-.08-11.91-10.92-.1-.08-11.91-11.91-.08-.09-10.92-11.91-.08-.08-11.92-11.92-.08-.08-11.92-11.92-.08-.09-11.97h-23.9s-.09,11.97-.09,11.97l-11.92.08-.08,11.92-11.92.08-.08,11.92-11.91.08-.1,10.92-11.91.08-.08,11.91-10.92.1-.08,11.91-11.92.08-.08,11.92-11.92.08-.08,11.92-11.92.08-.08,11.92-11.92.08-.09,11.97-23.9.03-.1,10.93-11.91.08-.08,11.92-11.97.09v23.9s12,.1,12,.1v23.9s11.96.09,11.96.09l.09,11.95h23.9s.09,11.96.09,11.96l11.91.08.1,10.95h23.9s.09,11.96.09,11.96l11.91.08.16,11.94h141.74Z"/>
  <polygon class="cls-1" points="262 153.99 262 177.94 273.96 178.04 274.04 189.95 285.96 190.03 286.04 201.96 298 201.99 298 224.94 309.96 225.04 310.04 236.95 320.96 237.04 321.04 248.95 332.96 249.03 333.04 260.95 344.96 261.03 345.04 272.95 356.96 273.03 357.04 284.95 368.95 285.03 369.05 295.95 380.96 296.03 381.04 307.95 392.96 308.03 393.04 319.95 404.96 320.03 405.05 332 428.96 332.04 429.04 343.95 439.96 344.04 440.04 355.95 451.96 356.03 452.04 367.95 464.01 368.06 464.01 426.97 440.05 427 439.96 415.04 429.04 414.95 428.96 403.03 417.04 402.95 416.95 391 393.06 390.99 392.95 380.03 381.04 379.95 380.96 368.03 369.04 367.95 368.96 356.03 357.04 355.95 356.96 344.03 345.04 343.95 344.96 332.03 333.04 331.95 332.96 320.03 321.04 319.95 320.96 308.04 310.04 307.95 309.96 296.03 298.05 295.95 297.95 285.03 286.04 284.95 285.96 272.99 274 272.99 274 249.04 262.04 248.95 261.95 236.98 238.05 236.98 237.96 248.95 226 249.04 226 272.99 214.04 272.98 213.96 284.95 202.05 285.03 201.95 295.95 190.04 296.03 189.96 307.95 179.04 308.04 178.96 319.95 167.04 320.03 166.96 331.95 155.04 332.03 154.96 343.95 143.04 344.03 142.96 355.95 131.04 356.03 130.96 367.95 119.04 368.03 118.96 379.95 107.05 380.03 106.94 390.99 83.05 391 82.96 402.95 71.04 403.03 70.96 414.95 60.04 415.04 59.95 427.01 35.99 426.98 35.99 368.06 47.96 367.95 48.04 356.04 59.96 355.95 60.05 344 82.95 343.99 83.04 332.03 94.96 331.95 95.04 320.03 106.96 319.95 107.04 308.03 118.96 307.95 119.04 296.03 130.95 295.95 131.05 285.03 142.96 284.95 143.04 273.03 154.96 272.95 155.04 261.03 166.96 260.95 167.04 249.03 178.96 248.95 179.04 237.04 189.96 236.95 190.04 225.04 202 224.94 202 201.99 213.96 201.96 214.04 190.03 225.96 189.95 226.04 178.03 238 177.94 238 153.99 262 153.99"/>
  <path class="cls-2" d="M178.87,95.12c-.04,3.77.44,7.53.05,11.84l-11.92.03.03-11.96,11.84.09Z"/>
  <path class="cls-2" d="M48,723.78c-3.81-.06-7.61.61-11.97.11l.05-11.58,11.89-.27.03,11.74Z"/>
  <g>
    <path class="cls-2" d="M320.86,592.98h-141.74s-.16-11.95-.16-11.95l-11.91-.08-.09-11.95h-23.9s-.1-10.97-.1-10.97l-11.91-.08-.09-11.95h-23.9s-.09-11.96-.09-11.96l-11.95-.09v-23.9s-12.01-.1-12.01-.1v-23.9s11.97-.09,11.97-.09l.08-11.92,11.91-.08.1-10.93,23.9-.03.09-11.97,11.92-.08.08-11.92,11.92-.08.08-11.92,11.92-.08.08-11.92,11.92-.08.08-11.91,10.92-.1.08-11.91,11.91-.08.1-10.92,11.91-.08.08-11.92,11.92-.08.08-11.92,11.92-.08.09-11.97h23.9s.09,11.97.09,11.97l11.92.08.08,11.92,11.92.08.08,11.92,11.91.08.09,10.92,11.91.08.08,11.91,10.92.1.08,11.91,11.92.08.08,11.92,11.92.08.08,11.92,11.92.08.08,11.92,11.92.08.09,11.95h23.89s.1,10.97.1,10.97l11.91.08.08,11.92,11.97.09v23.9s-12,.1-12,.1v23.9s-11.96.09-11.96.09l-.09,11.95h-23.9s-.09,11.96-.09,11.96l-11.91.08-.1,10.95h-23.9s-.09,11.96-.09,11.96l-11.9.08-.2,11.95ZM166.99,450.99v12h12.01v-12h-12.01ZM333,450.99h-12v12h12v-12ZM286.02,521.93l.02-11.92h11.92s.08,11.94.08,11.94l11.92.08.09,11.95h22.9s.09,11.98.09,11.98l11.97-.02v-23.91s-11.97-.09-11.97-.09l-.1-11.96h-34.89s-.1-11.96-.1-11.96l-11.97-.09v-23.94s23.96-.02,23.96-.02v-11.01s-23.89,0-23.89,0l-.14,11.02h-71.82s-.14-11.02-.14-11.02h-23.89s0,11.01,0,11.01l23.95.02v23.94s-11.96.09-11.96.09l-.1,11.96h-34.89s-.1,11.96-.1,11.96l-11.97.09v23.91s11.97.02,11.97.02l.09-11.97h22.9s.09-11.96.09-11.96l11.92-.08.08-11.93h11.92s.08,11.95.08,11.95l11.95-.02.03-23.97h47.95s.03,23.97.03,23.97l12.01-.02Z"/>
    <polygon class="cls-1" points="286.02 521.93 274.01 521.95 273.98 497.98 226.02 497.98 225.99 521.95 214.04 521.97 213.96 510.02 202.04 510.02 201.96 521.95 190.04 522.03 189.95 533.99 167.05 534 166.96 545.97 154.99 545.95 154.99 522.04 166.96 521.95 167.06 509.99 201.94 510 202.04 498.03 214.01 497.95 214 474.01 190.05 473.99 190.05 462.98 213.95 462.98 214.09 474 285.91 474 286.05 462.98 309.94 462.98 309.95 473.99 286 474.01 285.99 497.94 297.96 498.03 298.06 510 332.94 509.99 333.04 521.95 345.01 522.04 345.01 545.95 333.04 545.97 332.95 534 310.05 533.99 309.96 522.03 298.04 521.95 297.96 510.02 286.04 510.01 286.02 521.93"/>
    <rect class="cls-1" x="166.99" y="450.99" width="12.01" height="12"/>
    <rect class="cls-1" x="321" y="450.99" width="12" height="12"/>
  </g>
</svg>