<?xml version="1.0" encoding="UTF-8"?>
<svg id="Layer_1" data-name="Layer 1" xmlns="http://www.w3.org/2000/svg" viewBox="0 0 840 733">
  <defs>
    <style>
      .cls-1 {
        fill: #d63c24;
      }

      .cls-2 {
        fill: #c2b073;
      }

      .cls-3 {
        fill: #125a35;
      }

      .cls-4 {
        fill: #574715;
      }

      .cls-5 {
        fill: #fefefe;
      }

      .cls-6 {
        fill: #9f8e4f;
      }
    </style>
  </defs>
  <polygon class="cls-5" points="426.67 640.19 426.78 652.81 413.65 652.94 413.66 640.02 426.67 640.19"/>
  <g>
    <path class="cls-2" d="M529.65,354.94c.05,8.71-.21,17.42.34,26.11.26,4.07-.98,8.14-.21,12.92-4.88-.33-8.85-.05-12.92.03.05-4.15-.61-8.34-.12-13.03l-13.07-.08-.11-13.03,13.07.04.02-12.96h13Z"/>
    <polygon class="cls-6" points="503.65 354.94 503.75 368.03 490.68 367.93 490.65 354.94 503.65 354.94"/>
    <polygon class="cls-6" points="567.65 354.94 567.63 367.92 554.68 367.92 554.65 354.94 567.65 354.94"/>
    <path class="cls-2" d="M541.76,380.96c0-4.29-.61-8.65.23-12.91l12.64-.09v12.96s-12.88.05-12.88.05Z"/>
    <g>
      <polygon class="cls-3" points="593.65 69.94 593.65 315.94 593.65 328.94 580.69 328.96 580.62 341.9 567.68 341.97 567.65 354.94 554.65 354.94 541.65 354.94 529.65 354.94 516.65 354.94 503.65 354.94 490.65 354.94 490.63 341.97 477.69 341.9 477.62 328.94 464.65 328.95 464.65 315.94 464.65 69.94 593.65 69.94"/>
      <path class="cls-1" d="M464.65,69.94v246c-3.98.09-7.97-.27-11.91.32-4.16-.57-8.34-.21-13.04-.32l-.08-12.96-12.95-.07-.02-12.96V69.94h38Z"/>
      <path class="cls-1" d="M631.65,69.94l.29,128.93c-.48,13.02-.48,26.12,0,39.14l-.29,51.93-.02,12.96-12.94.07-.08,13.05c-4.7-.42-8.88.21-13.03.21s-7.95-.6-11.92-.29V69.94h38Z"/>
      <path class="cls-3" d="M426.65,69.94v220c-4.31-.09-8.64.26-12.93-.28l-.1-12.59c-4.65-.67-8.77.35-12.85.21l-12.13-.42V69.99s38-.05,38-.05Z"/>
      <path class="cls-3" d="M644.65,276.94v-38.93s-12.71,0-12.71,0c-.48-13.02-.48-26.12,0-39.14l12.71-.05V69.94s26.01.1,26.01.1v206.83s-26.01.07-26.01.07Z"/>
      <polygon class="cls-4" points="644.65 69.94 644.65 198.82 631.94 198.87 631.65 69.94 644.65 69.94"/>
      <polygon class="cls-4" points="644.65 276.94 644.64 289.91 631.65 289.94 631.94 238.01 644.64 238 644.65 276.94"/>
      <path class="cls-6" d="M413.72,289.65c-4.17.42-8.3.34-13.04.24l.09-12.62c4.08.14,8.2-.88,12.85-.21l.1,12.59Z"/>
      <path class="cls-2" d="M605.58,316.22l.05,12.68-11.98.03v-13c3.98-.31,7.97.29,11.92.29Z"/>
      <path class="cls-2" d="M464.65,315.94v13.01l-11.98-.04.06-12.65c3.94-.59,7.94-.23,11.91-.32Z"/>
    </g>
    <path class="cls-4" d="M541.65,354.94c.09,4.38-.28,8.77.34,13.12-.85,4.26-.24,8.62-.23,12.91l-11.76.08c-.55-8.69-.29-17.4-.34-26.11h12Z"/>
    <g>
      <path class="cls-2" d="M413.62,420.11l.13,12.83,12.82.03.13-13.02,12.96.02c.13,4.75-.28,8.88.33,13.05-.53,4.11-.35,8.19-.28,12.89l12.75-.17c.44-4.49.2-8.49.09-12.48,3.83-.48,7.71-.41,12.08-.28l.08,12.95,39.05.09-.1-25.98,13.09-.2-.1,25.85c-4.15.42-8.24.28-13.11.06l.07,13.17-25.93.02-.07,12.96,38.93-.1,12.99.26.13,12.59-65.01.04v13.69s103.02-.06,103.02-.06v-13.69s-77.08.05-77.08.05l-25.93.02v13.69s26.01-.02,26.01-.02l25.92-.02.08,63.41-12.91.12-.07,13.04,13.1.13-.22,12.98,13.07-.04v12.69c-4.1-.12-8.24.68-12.87.19v-13.04s-13.06.39-13.06.39l-.05,12.78-12.96-.03-.07,12.92-12.94.07v12.95s12.95,0,12.95,0l.07-12.86c4.69-.63,8.9.28,13.04.16l-.06,12.68c4.68.07,8.78.21,12.89-.21l13.17.53-.09,12.72-12.82.18c-4.45.06-8.85.14-13.27.12l-50.75-.26c.07-4.34-.43-8.71,0-13.06h11.81s-.02-12.95-.02-12.95l-24.96.19c-4.33.03-8.64-.4-13-.03-4,.34-8.18-.79-12.94-.04l-.26,25.82-12.68.17-12.13-.22v-206.76s11.96-.2,11.96-.2l.07-12.87c4.66-.39,8.8.15,12.93.09ZM452.65,458.94h-13v13h13v-13ZM464.65,574.94h13.01v-51.02h-13.01v51.02ZM452.69,561.91h-13.04v13.08h13.04v-13.08ZM477.65,587.94h-13v13h13v-13Z"/>
      <polygon class="cls-2" points="541.71 640.01 541.66 652.91 529.68 652.83 529.65 639.94 541.71 640.01"/>
      <path class="cls-2" d="M567.75,614.14l-.17,12.83-13.08-.18.15,13.16c-4.7.06-8.82.07-12.94.05l-.14-12.81c4.16-.36,8.33-.18,13.24-.1-.06-4.73-.56-8.69.16-13.07,4.57-.32,8.69.12,12.77.11Z"/>
      <path class="cls-2" d="M631.65,419.99v12.87s12.86.08,12.86.08l26.18.04-.16,141.83-51.86.15-.03,25.93,12.98.16-.03,12.7-26.01.45.09,12.59-.24,13.14-24.74-.23-.14-12.88c-.05-4.29-.33-8.5-.21-12.76l.38-12.9,12.94-.25.06-12.9,11.91-.06c0-4.59.26-8.44-.22-12.98l-11.65.02c-.34,4.7-.02,8.82-.04,13.01l-12.85-.06-.33-12.77-12.85-.25-.24-12.79-12.99-.27.19,26.08-12.76.05-.37-13.19.23-13.08c-4.47.74-8.28-.21-12.09,0,.09-4.24-.28-8.49.32-12.7h11.35c.62,4.13.28,8.2.21,13.04l13.21.06-.11-38.21h13s0-12.96,0-12.96l-12.96.09-.04,12.87c-4.16,0-8.23.15-13.17-.16.16,4.68.5,8.41-.15,13.09h-11.34c-.52-4.24-.5-8.57-.01-12.82l11.84.07-.25-25.75,26.1-.02v-13.69s-26.18.02-26.18.02c.34-8.35-.4-17.03-.14-25.63l.4-13.07,12.9-.14,13,.09.03,13.03c-4.24,0-8.55-.36-12.93.32l-.05,12.59c4.68.5,8.83-.25,12.97-.03,4.36.23,8.64,0,12.98-.13,4.13-.12,8.28.61,12.96.22l.03,13-12.96.06v12.92s12.95,0,12.95,0l.07-12.92,11.93-.02.03,12.98,13,.04-.13-25.88.23-13.29-13.07.1-.03-12.7,12.98-.21.03,12.99,25.96-.02.08,12.98,12.97-.02-.02-25.9-39.02-.03-.16-13c-.05-4.16.47-8.29.13-13l13.05.03ZM580.89,523.95c-.32,4.13-.4,8.3-.13,12.95l12.65.1.31,11.83-.06,13.08h11.96s.03-12.73.03-12.73l12.95-.33-.06-11.87-12.86-.08-.07-12.92-11.91-.1-.09-12.92h-12.93c-.09,4.72-.16,8.83.2,12.99Z"/>
      <path class="cls-2" d="M567.61,600.77c-4.32.32-8.61-.03-12.93.04l-.02-12.87h12.9s.05,12.83.05,12.83Z"/>
      <path class="cls-6" d="M580.33,614.05c-.13,4.26.16,8.47.21,12.76h-13.11s.18,13.08.18,13.08l-13.16-.15.21,13.18h12.96s.08-13.09.08-13.09c4.66.55,8.87-.18,12.98-.14l24.74.23c-.08,4.14.55,8.27.18,13h26.06s.12,12.88.12,12.88l-.23,13.18-191.87-.2-.05-12.76c-4.63-.46-8.73.19-12.82.08-4.21-.11-8.36-.28-13.14-.14l-.02-13.03,13.13-.13,25.83.14.21-12.97,50.75.26.11,12.67h12.97s.19-12.79.19-12.79l12.82-.18.03,12.9,11.98.07.05-12.9c4.12.02,8.24.01,12.94-.05l-.15-13.16,13.08.18.17-12.83c4.19,0,8.39-.49,12.59-.09Z"/>
      <path class="cls-6" d="M541.57,627.2l.14,12.81-12.06-.07.09-12.72c3.92.16,7.91-.82,11.83-.01Z"/>
      <path class="cls-6" d="M426.66,614.12l.02,12.8,13.11.25-.13-13.01,24.96-.19.02,12.94h-11.81s-13.4-.1-13.4-.1c.2,4.73.49,8.42.11,13.2-4.74-.22-8.77.24-12.86.19l-13.01-.17v12.92s-13.03-.09-13.03-.09l.15-12.78,12.68-.17.26-25.82c4.76-.75,8.93.38,12.94.04Z"/>
      <path class="cls-4" d="M605.75,394.27l-.08,12.5c4.65.69,8.79-.14,12.89-.09s8.32.54,13.05.2l.03,13.12-13.05-.03c.34,4.72-.19,8.85-.13,13l-24.77-.04v13.1c4.35-.54,8.16.22,11.95.15l.03,12.7,13.07-.1-.23,13.29c-4.12-.06-8.21-.52-12.82.2l-.07,12.67-11.93.02-.07,12.92h-12.95s0-12.91,0-12.91l12.96-.06-.03-13c-4.69.39-8.83-.34-12.96-.22l-.09-12.73h-12.89s-.03-13.04-.03-13.04l-13-.09.02-25.84-13.01-.04.13-25.87,63.97.2Z"/>
      <polygon class="cls-4" points="541.74 445.96 541.34 459.03 529.76 458.95 529.65 445.94 541.74 445.96"/>
      <path class="cls-4" d="M490.73,394.26l-.04,12.58,12.94-.04-.06-12.52,13.3-.28-.29,26.01,25.08-.07-.07,12.95-11.92.17-.02,12.88c-4.34,0-8.69.32-13.01-.24l.1-25.85-13.09.2.1,25.98-39.05-.09-.08-12.95c-4.37-.14-8.26-.2-12.08.28-4.16-.57-8.37-.33-12.56-.24-.61-4.17-.2-8.3-.33-13.05l-12.96-.02-.13,13.02-12.82-.03-.13-12.83,13-.17.08-12.97,12.92-.07.1-13.01,51.01.36Z"/>
      <path class="cls-6" d="M670.53,574.81c0,8.73.54,17.49-.17,26.2-4.35-.02-8.84-.35-13.62.12l-.03,9.86c-.01,4.61-11.33.05-11.69,3.12-1.03,8.73-.11,17-.32,25.88l-13.14-.08.05-12.96h-12.95s-12.99-.16-12.99-.16l-.09-12.59,26.01-.45.03-12.7-12.98-.16.03-25.93,51.86-.15Z"/>
      <polygon class="cls-6" points="554.64 445.82 541.74 445.96 529.65 445.94 529.67 433.06 541.59 432.89 541.65 419.94 554.66 419.98 554.64 445.82"/>
      <path class="cls-6" d="M541.76,380.96l.03,13.1-.13,25.87-25.08.07.29-26.01c4.07-.09,8.05-.36,12.92-.03-.77-4.78.46-8.85.21-12.92l11.76-.08Z"/>
      <path class="cls-6" d="M516.64,445.7c4.31.56,8.67.24,13.01.24l.11,13.02,11.58.07c-.26,8.6.48,17.27.14,25.63h-11.83s-.13-12.59-.13-12.59l.26-13.35-13.11.24-.15,12.86-38.93.1.07-12.96,25.93-.02-.07-13.17c4.87.22,8.97.35,13.11-.06Z"/>
      <path class="cls-2" d="M670.36,601.01c.63,8.57.22,17.2.17,25.8l-12.86.14-.07,12.77c-4.16.08-8.24.49-13.02.05l.04,13.15h-12.93s-.08-13.07-.08-13.07l-12.93.05-.03-12.96h12.95s-.05,12.97-.05,12.97l13.14.08c.21-8.88-.71-17.14.32-25.88.36-3.07,11.68,1.49,11.69-3.12l.03-9.86c4.77-.47,9.27-.14,13.62-.12Z"/>
      <path class="cls-6" d="M503.57,394.28l.06,12.52-12.94.04.04-12.58c4.28.03,8.52.12,12.84.02Z"/>
      <path class="cls-6" d="M618.57,406.67c-4.11-.05-8.24.78-12.89.09l.08-12.5c4.08.01,8.22-.94,12.88-.18l-.06,12.59Z"/>
      <polygon class="cls-6" points="644.51 432.94 631.66 432.86 631.65 419.99 644.61 419.95 644.51 432.94"/>
      <path class="cls-6" d="M670.53,626.81c-.02,4.17.41,8.42.01,13.06-4.73.47-8.87-.23-12.95-.15l.07-12.77,12.86-.14Z"/>
      <path class="cls-4" d="M618.65,626.94l.03,12.96,12.93-.05.08,13.07h12.93s-.04-13.14-.04-13.14c4.78.43,8.87.02,13.02-.05v13.18s-12.91.07-12.91.07l-.07,12.93-12.83-.09-.12-12.86h-26.06c.37-4.74-.26-8.87-.18-13.01l.24-13.14,12.99.14Z"/>
      <path class="cls-2" d="M439.69,678.78c-4.16,0-8.29.66-12.99.07l.12-12.75c4.09.11,8.18-.54,12.82-.08l.05,12.76Z"/>
      <polygon class="cls-4" points="529.65 484.66 541.48 484.65 567.65 484.64 567.66 498.33 541.56 498.35 529.8 498.35 516.58 498.36 490.65 498.38 490.58 484.69 567.65 484.64 567.66 498.33 464.65 498.4 464.65 484.7 529.65 484.66"/>
      <polygon class="cls-4" points="541.52 574.8 541.89 587.99 541.56 601.03 529.63 600.69 529.63 587.99 516.56 588.04 516.78 575.06 541.52 574.8"/>
      <path class="cls-4" d="M503.65,601l13.27-.14c-.6,4.81-.11,8.85-.17,12.98l-13.02.38c-4.15.12-8.36-.78-13.04-.16l-.07,12.86h-12.95s0-12.95,0-12.95l12.94-.07.07-12.92,12.96.03Z"/>
      <path class="cls-4" d="M593.72,588l-.06,12.9-12.94.25-.38,12.9c-4.19-.4-8.4.08-12.59.09-4.08,0-8.2-.43-12.77-.11-.72,4.37-.22,8.34-.16,13.07-4.92-.08-9.08-.26-13.24.1-3.92-.8-7.92.17-11.83.01l-13.17-.53.19-12.85,24.78.12c.32-4.88-.08-8.86.02-12.92l13.11-.22c4.32-.07,8.61.28,12.93-.04,4.12-.3,8.2.82,12.93-.12l.33-12.71,12.85.06Z"/>
      <path class="cls-5" d="M529.8,498.35l.16,25.66c-.49,4.26-.5,8.58.01,12.83-.5,4.04-.49,8.13,0,12.17-.6,4.2-.23,8.46-.32,12.7-4.35.24-8.64.01-12.99.05l-.08-63.41h13.23Z"/>
      <path class="cls-4" d="M452.83,626.92c-.43,4.35.06,8.72,0,13.06l-.21,12.97-25.83-.14-.1-12.62c4.09.05,8.12-.41,12.86-.19.38-4.78.09-8.47-.11-13.2l13.4.12Z"/>
      <path class="cls-6" d="M516.66,561.77c4.36-.04,8.64.19,12.99-.05,3.81-.21,7.62.74,12.09,0l-.23,13.08-24.74.25-13.1-.13.07-13.04,12.91-.12Z"/>
      <polygon class="cls-4" points="477.65 548.85 477.65 574.94 464.65 574.94 464.65 548.79 477.65 548.85"/>
      <polygon class="cls-6" points="490.58 484.69 490.65 498.38 464.65 498.4 464.65 484.7 490.58 484.69"/>
      <polygon class="cls-6" points="477.65 548.85 464.65 548.79 464.65 523.92 477.65 523.92 477.65 548.85"/>
      <rect class="cls-5" x="439.65" y="561.91" width="13.04" height="13.08"/>
      <rect class="cls-4" x="464.65" y="587.94" width="13" height="13"/>
      <path class="cls-6" d="M529.63,600.69l11.93.34c-.1,4.06.29,8.04-.02,12.92l-24.78-.12c.06-4.13-.43-8.16.17-12.98l-13.27.14.05-12.78,13.05-.39v13.04c4.64.5,8.78-.3,12.87-.19Z"/>
      <path class="cls-6" d="M516.76,613.83l-.19,12.85c-4.11.43-8.22.28-12.89.21l.06-12.68,13.02-.38Z"/>
      <path class="cls-6" d="M580.87,587.94l-.33,12.71c-4.73.94-8.81-.18-12.93.12l-.05-12.82h-12.9s-.19-26.09-.19-26.09l12.99.27.24,12.79,12.85.25.33,12.77Z"/>
      <polygon class="cls-6" points="554.65 587.94 554.67 600.81 541.56 601.03 541.89 587.99 554.65 587.94"/>
      <path class="cls-6" d="M452.54,433.27c.11,3.99.35,7.99-.09,12.48l-12.75.17c-.06-4.7-.25-8.78.28-12.89,4.19-.09,8.4-.33,12.56.24Z"/>
      <rect class="cls-4" x="439.65" y="458.94" width="13" height="13"/>
      <polygon class="cls-5" points="529.52 472.07 516.53 471.81 516.68 458.95 529.79 458.72 529.52 472.07"/>
      <path class="cls-5" d="M439.66,614.15l.13,13.01-13.11-.25-.02-12.8c4.36-.37,8.67.06,13,.03Z"/>
      <path class="cls-4" d="M516.83,640.12l-.19,12.79h-12.97s-.11-12.67-.11-12.67c4.42.02,8.82-.06,13.27-.12Z"/>
      <polygon class="cls-6" points="618.62 445.97 657.65 445.99 657.66 471.9 644.69 471.92 644.61 458.94 618.65 458.96 618.62 445.97"/>
      <path class="cls-6" d="M618.46,432.97l.16,13-12.98.21c-3.79.06-7.6-.69-11.97-.15v-13.1s24.78.04,24.78.04Z"/>
      <path class="cls-5" d="M554.63,523.92l.11,38.21-13.21-.06c.07-4.85.41-8.91-.21-13.03.48-4.61.48-8.43,0-12.19.64-4.67.31-8.4.15-13.09,4.94.31,9.01.16,13.17.16Z"/>
      <path class="cls-6" d="M605.66,549.18l-11.93-.35-.31-11.83.28-13.16-12.8.11c-.36-4.16-.3-8.26-.2-12.99h12.93s.09,12.92.09,12.92l11.91.1.07,12.92,12.86.08.06,11.87-12.95.33Z"/>
      <path class="cls-6" d="M618.51,472.08l.13,25.88-13-.04-.03-12.98.07-12.67c4.61-.72,8.7-.26,12.82-.2Z"/>
      <polygon class="cls-6" points="541.56 498.35 541.81 524.09 529.97 524.02 529.8 498.35 541.56 498.35"/>
      <path class="cls-6" d="M580.64,471.69c-4.34.13-8.63.36-12.98.13v-12.88s12.9.01,12.9.01l.09,12.73Z"/>
      <polygon class="cls-4" points="554.63 523.92 554.67 511.04 567.64 510.95 567.63 523.92 554.63 523.92"/>
      <path class="cls-5" d="M593.42,537l-12.65-.1c-.28-4.65-.19-8.82.13-12.95l12.8-.11-.28,13.16Z"/>
      <path class="cls-4" d="M580.54,626.81l.14,12.88c-4.12-.04-8.32.69-12.98.14l-.08,13.09h-12.96s-.21-13.18-.21-13.18l13.16.15-.18-13.09h13.11Z"/>
      <path class="cls-5" d="M567.67,458.94v12.88c-4.15-.22-8.3.53-12.98.03l.05-12.59c4.38-.67,8.7-.32,12.93-.32Z"/>
      <path class="cls-5" d="M593.72,588c.02-4.19-.3-8.32.04-13.01l11.65-.02c.47,4.53.22,8.39.22,12.98l-11.91.06Z"/>
      <polygon class="cls-4" points="605.66 549.18 605.63 561.91 593.67 561.91 593.73 548.83 605.66 549.18"/>
      <path class="cls-6" d="M541.32,536.84c.49,3.77.48,7.58,0,12.19h-11.35c-.49-4.05-.49-8.14,0-12.18h11.34Z"/>
    </g>
  </g>
</svg>