<?xml version="1.0" encoding="UTF-8"?>
<svg id="Layer_1" data-name="Layer 1" xmlns="http://www.w3.org/2000/svg" viewBox="0 0 1534 2691">
  <defs>
    <style>
      .cls-1 {
        fill: #d6bc72;
      }

      .cls-2 {
        fill: #b29b5d;
      }

      .cls-3 {
        fill: #464867;
      }

      .cls-4 {
        fill: #d02223;
      }

      .cls-5 {
        fill: #e3a10c;
      }

      .cls-6 {
        fill: #ccc;
      }

      .cls-7 {
        fill: #fefefe;
      }
    </style>
  </defs>
  <polygon class="cls-1" points="975.9 1221.36 976.01 1248 948 1248 948 1221 975.9 1221.36"/>
  <polygon class="cls-1" points="363 1137 335 1137 335.13 1110.14 363 1110.01 363 1137"/>
  <polygon class="cls-1" points="1142.86 1110.15 1143.01 1137.03 1116 1137 1116 1110.02 1142.86 1110.15"/>
  <g>
    <path class="cls-4" d="M1338.68,943.1l-27.63-.05.08,27.83-.16,28.13h-55.95s-.09,26.99-.09,26.99h-55.94s-.02,56.02-.02,56.02l-55.96-.02-.16,28.15-26.86-.13v26.98s-28.1.32-28.1.32c-9.08.1-18.2-.84-27.89-.21l-.1,27.71-27.89.14-.07,28.04h-27.94s-.02,28.1-.02,28.1c-9.78-.53-18.93.38-28.08.26l-27.9-.36V111l391,.02-.32,832.08Z"/>
    <polygon class="cls-4" points="530 111 530.01 1220.84 502.1 1221.34 474.01 1221.08 474 1193 473.96 1165.03 446.13 1165.13 418.02 1164.82 417.99 1137.11 390.1 1137.33 363 1137 363 1110.01 335.13 1110.14 334.98 1082.01 279 1082 279 1026 223.03 1025.99 222.98 998.95 195.08 998.82 194.95 971.01 167.01 971.05 166.99 942.99 139.33 943.1 139 111.02 530 111"/>
    <polygon class="cls-5" points="865 111 865 1304 837 1304 641 1304 640.96 1276.04 614 1275.8 614 111 865 111"/>
    <polygon class="cls-4" points="614 111 614 1275.8 640.96 1276.04 641 1304 586.31 1304.08 586 1276 586 111 614 111"/>
    <polygon class="cls-3" points="586 111 586 1276 557.93 1275.75 557.66 1221.08 557.92 111.29 586 111"/>
    <polygon class="cls-3" points="920.09 111.31 920.1 1275.66 892 1276 892 111 920.09 111.31"/>
    <path class="cls-2" d="M948,111v1164.9c-9.72.59-18.82-.34-27.9-.24V111.31s27.9-.31,27.9-.31Z"/>
    <polygon class="cls-4" points="892 111 892 1276 891.67 1304.09 865 1304 865 111 892 111"/>
    <polygon class="cls-1" points="557.92 111.29 557.66 1221.08 530 1220.92 530 1248 502 1247.96 502.1 1221.34 530.01 1220.84 530 111 557.92 111.29"/>
    <path class="cls-2" d="M865,1304l26.67.09c-.11,9.07.99,18.22.16,27.89l-26.81.03-.04,27-27.86-.14-.13-54.87h28Z"/>
    <path class="cls-2" d="M641,1304l-.13,54.87-26.86.14-.04-27-27.86-.02c-.72-9.69.3-18.83.19-27.91l54.69-.08Z"/>
    <polygon class="cls-2" points="557.66 1221.08 557.93 1275.75 530 1275.93 530 1248 530 1220.92 557.66 1221.08"/>
    <path class="cls-2" d="M195.08,998.82l-28.07.13.04-27.94-27.95-.03c-.55-9.7.24-18.8.24-27.89l27.66-.11.02,28.07,27.94-.04.12,27.81Z"/>
    <path class="cls-2" d="M1338.68,943.1c0,9.1.81,18.17.2,27.91l-27.74-.13-.08-27.83,27.63.05Z"/>
    <polygon class="cls-1" points="418.02 1164.82 390 1164.92 390.1 1137.33 417.99 1137.11 418.02 1164.82"/>
    <path class="cls-2" d="M1087.9,1137.32l.1,27.63-28.1-.13.1-27.71c9.69-.63,18.81.31,27.89.21Z"/>
    <polygon class="cls-2" points="474 1193 445.99 1193 446.13 1165.13 473.96 1165.03 474 1193"/>
  </g>
  <g>
    <path class="cls-1" d="M1060.01,1942.01l.24,27.92-.25,27.08c-9.87-.55-19,.3-28.04.25l-55.89-.32-.13-54.95,27.95.13.26-28.13,27.86-.03.15,28.06h27.84Z"/>
    <path class="cls-1" d="M251.09,2274.91l-.35,28.07-27.63.02c-.64-9.71.34-18.82.22-27.9l27.77-.19Z"/>
    <polygon class="cls-1" points="892 2247 892 2275.06 865 2275.05 864.97 2247.13 892 2247"/>
    <polygon class="cls-1" points="1059.71 2497.08 1059.92 2523.99 1004 2523.78 1004 2497 1059.71 2497.08"/>
    <polygon class="cls-1" points="781 2108 780.98 2136.02 752.94 2135.94 753.09 2108.09 781 2108"/>
    <polygon class="cls-1" points="1310.88 1858.88 1283 1859 1283.34 1831.1 1310.92 1831 1310.88 1858.88"/>
    <polygon class="cls-1" points="753.09 2108.09 725.01 2107.99 725 2081.17 753.09 2080.92 753.09 2108.09"/>
    <path class="cls-1" d="M837,1304l.13,54.87-.1,28.16-55.77-.09c.19-9.29.14-18.57.04-27.87l27.65-.15.07-26.92h-28.01s-55.99-.02-55.99-.02l-.02,27,27.99.03.03,55.96,27.66.11.34,54.97,55.91.23.1,55.72,54.95.02.13-55.69,55.9-.4v56.08s111.96-.04,111.96-.04l-.03,27.98,28.05.05.06,26.99,27.96.02.13,28.13-.08,27.77,26.94-.16c9.05-.05,18.06.66,27.97.18l.03,27.06.02,27.92,27.87-.04,28.11.12.06,28.02h27.91s-.08,27.85-.08,27.85l-27.87.14.13-28.14-28.12.12-.02,28.07-27.92-.12-.12-27.95h-27.95s0,27.99,0,27.99l28.02.02-.05,26.94-27.95.07-.02,27.99h-26.96s-.2-28-.2-28l-27.7-.05-.14,28.05,28.02.05-.06,55.82,27.05.15.04,26.96,27.93.13-.02,27.94,56.12-.13.16,28.05,27.79.02v-56s-83.99-.06-83.99-.06l-.03-26.93-27.99-.05v-55.95s56,.02,56,.02l-.03-55.02h28.02s.03,27.01.03,27.01l27.99-.02v83.99s28,0,28,0l.11,54.99,27.61.08.32,249.86-27.96.07-.11,54.98-28,.05-.13,28-27.85-.02v27.99s27.68.11,27.68.11l.37,54.9h-56.05s-.02,55.96-.02,55.96l-27.95.25-.04,27.77-27.93.06-.12,26.95-26.95.03.02-27.03h-28.01s0,27.01,0,27.01l27.99.02v27.99s-55.98-.02-55.98-.02h-55.99s-.01,28-.01,28h-28s0,27.04,0,27.04l-28-.04-55.93-.02.17,28.02-.38,27.87c-10.01.67-18.28-.21-26.78-.21l-.13-27.67h-250.78s-.21-28.01-.21-28.01l-83.96.02-28,.02v-27s-27.98-.02-27.98-.02l-.06-27.99h-28.02s-.12,27.98-.12,27.98l-27.85.02-.09-27.87.09-28.11-27.95-.02-.03-27.04-26.86-.08-.08-27.86-28.04-.02v-27.98s-27.96-.04-27.96-.04l-.06-27.98-27.99-.03v-55s-27.9-.08-27.9-.08l-.08-27.89-28.05-.02.04-28,.02-54.98-28.11-.02c.48,9.73-.32,18.81-.23,27.91l-27.69.02.02-332.84,27.99-.12v-55.95s28.01-.05,28.01-.05l-.02-82.94,27.97.03.06-28.09,27.98.02,27.96-.02-.09-28.07.13-26.9,27.96-.03.06-27.96,27.85-.14.19-27.88,26.83-.02.08,28.02h28.05s-.04-28.02-.04-28.02h-28.08s.1-26.99.1-26.99h56s.03-27.9.03-27.9c9.7-.57,18.8.34,27.88.23l.16,27.69,27.85.04-.1-28.05.16-28,55.87-.06.43-28.02,110.66.29.08,27.74,27.94.04-.08-27.88.13-83.13v-28.01s-28,.04-28,.04v27.75s-28.05.15-28.05.15l-.08-28.06.13-54.87h196ZM530.2,1637l-.21,26.93,28.07-.19,27.93.18.03-26.9,27.8-.05.14-28.04,27.05.06v-27.97s-27,0-27,0l.06,28.03h-28.03s-.05,27.92-.05,27.92l-27.92.28-.08-83.21-28-.02.21,82.98ZM891.98,1554v27h28.02v-27h-28.02ZM725,1580.87h-28v28.13h28v-28.13ZM417.98,1747.97l.05-27.97h55.97s-.04-27.94-.04-27.94l-28.05-.1.09-27.9,27.99-.08.02-54.97-28,.03-.03,27.95h-27.97s-.02,55.07-.02,55.07h-82.99s-.02,27.89-.02,27.89l28.01.07.13,27.92,54.84.04ZM892.02,1609h-55.02v28.02h55.02v-28.02ZM976.15,1692l83.83-.07.04-82.91h-28.01s-.03,54.94-.03,54.94l-55.89.1.06,27.93ZM919.98,1636.98l-.02,27.02,28.11.02.02-27.02-28.11-.02ZM585.93,2025.06l-83.92-.02-.07,27.93,84-.03.05,28.05h28.01s0,27,0,27h27s.04,28.04.04,28.04l55.95-.02.02-28h28s0,27.95,0,27.95l27.95-.02-.02,27.99-27.93.08-.03,27.96,28.17-.07.03,27.09,27.82.07-.09-26.99-27.9-.09.05-27.9,27.91-.08.02-27.98,55.71.09.08,28.1-27.79-.18.08,27.98h82.93s-.12-28.03-.12-28.03l-26.82.04-.06-82.94,54.97-.09.16-27.96,83.81-.14v-27.99s28.15-.06,28.15-.06l-.11,28.05,28.01.15-.3,28.05-27.66-.07.05,54.85-28.09.3v55.85s28.06,0,28.06,0l.03-56.14h27.97s-.31,56.12-.31,56.12l-27.74.03-.12,27.11,27.97.05.1,55.82h-27.96s.07-56.07.07-56.07l-56.08.08v55.97s28.04.08,28.04.08l-.02,54.96h27.97s.15-26.88.15-26.88l27.75-.26.16-27.85,27.95-.06-.32-138.84v-83.22c0-9.08,1.12-18.13.18-27.96l-27.86-.18.02-27.76h27.92c.47-9.15-.28-17.64-.21-27.08l.21-27.91h-27.91s-.26-27.95-.26-27.95l.18-28.02-27.68-.07-.17-26.82,27.93-.18-.04-27.96-56.02.05.02-28.1-27.98.03.05,27.98h28.03s-.13,54.92-.13,54.92l-27.92.14-.03-27.05-27.99.06v54.92s-27.99.05-27.99.05l-.02-28.01h-28s.05,27.98.05,27.98l27.97.04v55.83s-28,.15-28,.15v-28.06s-27,.06-27,.06v-55.96s-27.86-.16-27.86-.16l-.21-26.86-55.95.07-.3-83.98c-.03-8.8.94-17.7.2-27.09l-27.71-.19-.15-55.77-28.02-.02-.05,83,28.19-.17-.13,28.13-28-.02-.05,28.03-27.94.03v54.99s-82.97-.02-82.97-.02l-.05-26.95-27.86-.06-.14-27.97-28.01-.16-.04-27.87h-55.94s.1,27.87.1,27.87l27.83.26.09,54.87h27.94s.26-26.99.26-26.99l27.74.04.17,26.82,27.86.14v27.94s26.87.03,26.87.03l.09,28.07,28.11.05-.08,27.91-27.86-.12-.07-27.97-27.04.08-.07,54.85-27.86.27-.14,27.93ZM696.75,1775.06c.77-8.73-.08-17.5,0-27.15l.2-27.91h-27.92s0,28.03,0,28.03h-28.04s0,54.99,0,54.99l55.9-.08-.14-27.88ZM1088,1719.87h-28v28.13h28v-28.13ZM335.02,1830.74v-27.7s27.98-.2,27.98-.2v-27.83s-27.99-.01-27.99-.01l-.09,27.99-55.89.17v27.92s55.98-.33,55.98-.33ZM919.96,1858.82l-.02-27.87,28.1.02-.15-27.86-27.85-.11.02,28.08-28.07-.07v28.03s27.97-.21,27.97-.21ZM1198.92,1830.98v28.02s28.08,0,28.08,0v-28.02s-28.08,0-28.08,0ZM278.88,1941.96l-55.83.05-.04,28.01,55.87-.02.13,27.02,28.01-.03-.02-137.94-27.83-.07-.43,27.06-55.7-.04.12,28.01,55.83.03-.11,27.93ZM390.13,1942.02l55.88-.04v-82.96s-28-.01-28-.01l-.12,54.96-27.91.05.16,28ZM558.07,1996.86l-.07-26.84-27.99-.03-.03-27.94-27.96-.06-.15-28.04-27.87.05-.05,28.02h28.05s.02,27.94.02,27.94l27.98.06.02,27.02,28.06-.17ZM1170.94,1941.98v28.1h28.06v-28.1h-28.06ZM474,2024.96l.02-27.95h-55.99s-.07-26.99-.07-26.99l-27.97-.03v27.02s27.99.02,27.99.02l.07,28.01,55.94-.08ZM948.09,2163.98l-.09-27.77-27.97-.2v28.03s28.06-.05,28.06-.05ZM864.91,2357.75c8.74,1,17.54-.07,27.2-.06,9.06.01,18.14.97,27.95.16v56.14s83.9-.01,83.9-.01l.05-27.95h-28s-.03-28.06-.03-28.06l-27.97-.21-.02-27.75-27.83-.18-.11-26.82,27.94-.03-.02-27.79-27.85-.32-.19-27.89h-27.94s0-28.04,0-28.04h-55.01s0,56.1,0,56.1h28.01s.12,55.06.12,55.06l-56.12-.16-.05,83.91-28.02.05.07-55.9h-83.92s-.13-27.96-.13-27.96l-27.96-.08.02-54.9-28.02-.15v-82.89s55.96-.06,55.96-.06l.04-27.99h-82.96s-.16,28.05-.16,28.05l-27.89-.05-.02,82.88-27.96.17-.03,83.03-111.9-.12-.02,56.02,111.8.05.22,26.99,27.94-.06-.03-110.91,27.92-.11.22-26.82,26.86-.1.02,26.98-26.95.09-.03,27.83,82.91.1-.06,28-82.81.07-.04,27.85,26.86.2.13,26.76-27,.14-.04,27.98h27.01s0-27.8,0-27.8l27.98-.05.06,27.81h83.9s.11-27.98.11-27.98l83.93.02.08-26.95,27.88.02.1,26.94,26.96-.06.03-26.93-26.95-.11-.07-27.86-28-.07.05-27.96,27.87-.27ZM390,2218.99v28.01s28.15,0,28.15,0v-28.01s-28.15,0-28.15,0ZM697,2219h-28v28h28v-28ZM781.07,2274.95h-28.07v55.05h28.07v-55.05Z"/>
    <polygon class="cls-1" points="335 2386 334.84 2414.11 363.12 2413.88 362.88 2440.85 335 2440.96 335.16 2413.83 306.99 2414 307.1 2386.31 335 2386"/>
    <polygon class="cls-1" points="808.91 1941.66 837.08 1941.76 865 1942 865.04 1969.97 892 1970 891.94 1997.04 948.02 1997.01 948.02 2025.01 892.12 2024.96 892.07 1997.1 837.18 1996.97 836.97 1969.99 809.03 1970.03 808.82 1997 781.02 1997 780.94 1970 724.98 1970.02 725 2024.99 752.95 2025.04 753.02 1997.02 780.99 1996.99 781.02 2025.02 837.03 2025.06 836.92 2081.01 809.02 2081.02 809.01 2108.05 781 2108 781 2053.05 697.06 2053.04 697.01 2108.01 641 2108 641.02 2080.93 614 2081 613.99 2052.98 585.94 2052.95 585.93 2025.06 640.9 2025.1 641.03 1997 697 1997 697.05 1914.01 752.96 1913.98 753.03 1941.96 808.91 1941.66"/>
    <path class="cls-2" d="M865.08,2579.66l-279.2.22.13-27.78c-9.75-.57-18.82.33-27.91.24l-28.09-.28v-28.06s83.96-.02,83.96-.02l.21,28.01h250.78s.13,27.67.13,27.67Z"/>
    <path class="cls-2" d="M781,1332l.29,27.08c.1,9.29.15,18.57-.04,27.87l-.57,28.14-27.66-.11-.03-55.96-27.99-.03.02-27h55.99Z"/>
    <polygon class="cls-2" points="892.1 1470.33 891.97 1526.03 837.03 1526 836.93 1470.29 892.1 1470.33"/>
    <polygon class="cls-2" points="417.87 2469.13 389.99 2468.97 389.99 2440.96 362.88 2440.85 363.12 2413.88 389.99 2413.96 390.01 2441 417.97 2441.01 417.87 2469.13"/>
    <polygon class="cls-2" points="251.09 2274.91 223.33 2275.09 222.96 2247 251.01 2247.02 251.09 2274.91"/>
    <polygon class="cls-2" points="335 2386 307.1 2386.31 279.02 2386.06 279.01 2330.02 250.92 2329.95 250.74 2302.98 251.09 2274.91 279 2274.99 279 2329.98 306.98 2330.01 307.04 2357.99 335.01 2358.02 335 2386"/>
    <polygon class="cls-2" points="363.12 2413.88 334.84 2414.11 335 2386 363.04 2386.02 363.12 2413.88"/>
    <polygon class="cls-2" points="502 2524.02 445.98 2523.99 445.82 2496.98 445.94 2469 473.96 2469 474.02 2496.99 502 2497.01 502 2524.02"/>
    <polygon class="cls-2" points="1310.88 1858.88 1310.72 1914.07 1283.11 1913.99 1283 1859 1310.88 1858.88"/>
    <path class="cls-2" d="M1283.34,1831.1l-.34,27.9h-28.01s0-56,0-56l28.12.03c-.72,9.73.33,18.93.22,28.07Z"/>
    <polygon class="cls-2" points="1004 2497 1004 2523.78 976 2524.04 976 2497 1004 2497"/>
    <polygon class="cls-2" points="1060 2469 1059.71 2497.08 1004 2497 1004.01 2468.99 1060 2469"/>
    <polygon class="cls-2" points="948 2524 947.95 2552 892.24 2551.99 892.07 2523.98 948 2524"/>
    <path class="cls-2" d="M223,2219h-28.06s-.26-27.09-.26-27.09c-.09-9.1.72-18.18.23-27.91l28.11.02-.02,54.98Z"/>
    <polygon class="cls-2" points="501.82 1526.01 501.91 1554.06 474.06 1554.02 473.9 1526.33 501.82 1526.01"/>
    <polygon class="cls-2" points="306.87 1663.92 306.96 1691.98 279 1692 279 1664.01 306.87 1663.92"/>
    <polygon class="cls-2" points="1198.87 1691.87 1171.01 1691.92 1170.99 1664 1199.01 1664.01 1198.87 1691.87"/>
    <polygon class="cls-2" points="696.87 1470.13 696.95 1498.01 669.02 1497.97 668.94 1470.22 696.87 1470.13"/>
    <path class="cls-2" d="M1254.84,2247.02c-.04,9.35.66,18.75-.17,28.08l-27.68-.11v-27.99s27.84.02,27.84.02Z"/>
    <path class="cls-1" d="M585.88,2579.88l-27.88.09.1-27.63c9.1.09,18.17-.8,27.91-.24l-.13,27.78Z"/>
    <polygon class="cls-2" points="697 1387 669 1386.78 669 1359.04 697 1358.99 697 1387"/>
    <polygon class="cls-2" points="1142.99 1636.76 1116.04 1636.92 1116.13 1609.15 1142.96 1609 1142.99 1636.76"/>
    <polygon class="cls-2" points="1254.87 1747.87 1255 1775 1227.01 1775.02 1226.99 1747.99 1198.97 1748.01 1199 1803.02 1143 1803 1143 1858.95 1170.99 1859.01 1171.02 1885.93 1255.01 1885.99 1255.02 1941.99 1227.23 1941.97 1227.07 1913.92 1170.95 1914.05 1170.97 1886.11 1143.04 1885.98 1143 1859.02 1115.95 1858.87 1116.01 1803.05 1087.98 1803 1088.12 1774.95 1115.82 1775 1116.03 1803 1142.99 1803 1143.01 1775.02 1170.96 1774.95 1171.01 1748.01 1142.99 1747.99 1143 1720 1170.95 1720 1171.07 1747.95 1198.99 1748.07 1199.01 1720 1227.13 1719.87 1227 1748.01 1254.87 1747.87"/>
    <polygon class="cls-2" points="781 2108 753.09 2108.09 753.09 2080.92 725 2081.17 725.01 2107.99 697.01 2108.01 697.06 2053.04 781 2053.05 781 2108"/>
    <polygon class="cls-2" points="753.17 1747.83 752.94 1775.15 780.68 1775.11 780.98 1859.09 836.93 1859.02 837.14 1885.88 865 1886.04 865 1942 837.08 1941.76 836.99 1914.01 808.99 1914 808.8 1886.04 780.96 1886.04 781.11 1858.84 752.99 1859.01 752.97 1885.99 780.96 1886.04 780.94 1913.88 808.99 1914 808.91 1941.66 753.03 1941.96 752.96 1913.98 697.05 1914.01 697 1997 641.03 1997 640.9 2025.1 585.93 2025.06 586.07 1997.13 613.93 1996.86 614.01 1942.01 641.04 1941.93 641.11 1969.9 668.97 1970.02 669.05 1942.11 640.94 1942.06 640.86 1913.99 613.97 1913.96 613.99 1886.02 586.12 1885.88 585.96 1859.06 558.22 1859.02 557.96 1886.01 530.02 1886.01 529.93 1831.13 502.1 1830.87 501.99 1802.98 557.94 1803 557.97 1830.87 585.98 1831.02 586.12 1858.99 613.98 1859.05 614.03 1886 697 1886.02 697 1831.03 724.95 1831 725 1802.97 753 1802.99 753.13 1774.86 724.94 1775.03 725 1692.04 753.02 1692.06 753.17 1747.83"/>
    <polygon class="cls-2" points="614 2081 585.99 2081 585.94 2052.95 613.99 2052.98 614 2081"/>
    <polygon class="cls-2" points="585.93 2025.06 585.94 2052.95 501.94 2052.97 502.01 2025.04 585.93 2025.06"/>
    <polygon class="cls-2" points="1087.71 1969.92 1060.25 1969.92 1060.01 1942.01 1087.92 1942.01 1087.71 1969.92"/>
    <polygon class="cls-2" points="892 1970 865.04 1969.97 865 1942 892 1941.94 892 1970"/>
    <polygon class="cls-2" points="697.01 2108.01 696.99 2136.01 641.04 2136.04 641 2108 697.01 2108.01"/>
    <polygon class="cls-2" points="641 2108 614 2108 614 2081 641.02 2080.93 641 2108"/>
    <polygon class="cls-2" points="780.98 2136.02 780.96 2164 753.05 2164.08 753 2191.99 780.9 2192.08 780.99 2219.06 753.16 2219 753.13 2191.9 724.97 2191.97 724.99 2164.01 752.92 2163.93 752.94 2135.94 780.98 2136.02"/>
    <path class="cls-2" d="M1032.24,1885.98l-.2,28.03,27.7.05.26,27.95h-27.84s-.15-28.07-.15-28.07l-27.86.03-.26,28.13-27.95-.13.13,54.95,55.89.32-.09,27.78,28.12-.27,27.86.18c.94,9.83-.18,18.88-.18,27.96l-27.66.14-28.01-.15.11-28.05-28.15.06v27.99s-83.81.14-83.81.14l-.16,27.96-54.97.09.06,82.94,26.82-.04.12,28.04h-82.93s-.08-27.99-.08-27.99l27.79.18-.08-28.1-55.71-.09.02-28.02,28.01.05v-27.03s27.92-.01,27.92-.01l.11-55.94-56.01-.05-.03-28.03-27.96.04-.07,28.01-27.95-.05v-54.96s55.94-.02,55.94-.02l.08,27h27.8s.21-26.97.21-26.97l27.94-.04.21,26.98,54.9.13.05,27.86,55.89.06v-28s-56.08.03-56.08.03l.06-27.04,28.01-.15v-55.83s-27.97-.04-27.97-.04l-.05-27.99h28s.02,28.02.02,28.02l28-.05v-54.92s27.98-.06,27.98-.06l.03,27.05,27.92-.14.13-54.92h-28.03s-.05-27.98-.05-27.98l27.98-.03-.02,28.1,56.02-.05.04,27.96-27.93.18.17,26.82Z"/>
    <polygon class="cls-2" points="753.09 2108.09 752.94 2135.94 725 2135.96 725.01 2107.99 753.09 2108.09"/>
    <path class="cls-2" d="M865,2275.05h27s0-28.06,0-28.06h27.94s.19,27.88.19,27.88l27.85.32.02,27.79-27.94.03.11,26.82-.25,28.19,28.1-.26,27.97.21.03,28.04h28s-.05,27.96-.05,27.96h-83.9s0-56.13,0-56.13c-9.81.81-18.89-.15-27.95-.16l-.12-27.67-27.15-.19.07,27.93-27.87.27-.05,27.96,28,.07.07,27.86,26.95.11-.03,26.93-26.96.06-.1-26.94-27.88-.02-.08,26.95-83.93-.02-.11,27.98h-83.9s-.06-27.8-.06-27.8l-27.98.05v27.8s-27,0-27,0l.04-27.98,27-.14-.13-26.76-26.86-.2.04-27.85,82.81-.07.06-28-82.91-.1.03-27.83,26.95-.09-.02-26.98-26.86.1-.22,26.82-27.92.11.03,110.91-27.94.06-.22-26.99-111.8-.05.02-56.02,111.9.12.03-83.03,27.96-.17.02-82.88,27.89.05.16-28.04h82.96s-.04,27.98-.04,27.98l-55.94.06v82.89s28,.15,28,.15l-.02,54.9,27.96.08.13,27.97h83.92s-.07,55.89-.07,55.89l28.02-.05.05-83.91,56.12.16-.12-55.06Z"/>
    <polygon class="cls-2" points="892 2247 864.97 2247.13 865 2275.05 836.99 2275.05 837 2218.94 892.01 2218.95 892 2247"/>
    <polygon class="cls-2" points="417.98 1747.97 363.14 1747.94 363.01 1720.01 335 1719.95 335.01 1692.05 418 1692.06 418.02 1636.98 445.99 1636.99 446.02 1609.04 474.01 1609.01 473.99 1663.98 446 1664.06 445.91 1691.96 473.96 1692.06 474 1720 418.02 1720 417.98 1747.97"/>
    <polygon class="cls-2" points="1032.08 2135.85 1032.05 2191.99 1004 2192 1003.99 2136.15 1032.08 2135.85"/>
    <polygon class="cls-2" points="1059.7 2081.08 1059.91 2136.14 1087.66 2136.12 1087.99 2274.96 1060.04 2275.02 1059.88 2302.87 1032.13 2303.13 1031.98 2330 1004.01 2330.01 1004.02 2275.05 975.98 2274.97 975.98 2219 1032.06 2218.92 1031.99 2274.99 1059.95 2274.99 1059.85 2219.17 1059.75 2191.97 1060.05 2135.85 1032.08 2135.85 1032.03 2081.01 1059.7 2081.08"/>
    <polygon class="cls-2" points="278.88 1969.99 278.88 1941.96 278.99 1914.03 223.16 1914 223.04 1885.98 278.74 1886.02 279.17 1858.96 307 1859.03 307.02 1996.97 279.01 1997 278.88 1969.99"/>
    <polygon class="cls-2" points="976.15 1692 976.09 1664.07 1031.98 1663.96 1032.01 1609 1060.02 1609.02 1059.97 1691.93 976.15 1692"/>
    <polygon class="cls-2" points="390.13 1942.02 389.97 1914.02 417.89 1913.96 418.01 1859 446.02 1859.02 446.01 1941.98 390.13 1942.02"/>
    <polygon class="cls-6" points="1087.66 2052.9 1087.66 2136.12 1059.91 2136.14 1059.7 2081.08 1060 2053.03 1087.66 2052.9"/>
    <polygon class="cls-2" points="696.74 1747.91 668.97 1747.98 668.95 1774.96 696.75 1775.06 696.88 1802.94 640.98 1803.02 640.98 1748.03 669.02 1748.03 669.01 1719.99 696.94 1720 696.74 1747.91"/>
    <polygon class="cls-2" points="558.06 1663.74 558.21 1637.19 530.2 1637 529.99 1554.02 557.98 1554.04 558.07 1637.25 585.99 1636.98 586.03 1609.05 614.06 1609.06 614 1581.03 641 1581.03 641.01 1609 613.95 1608.94 613.81 1636.97 586.01 1637.02 585.99 1663.92 558.06 1663.74"/>
    <polygon class="cls-2" points="335.02 1830.74 279.05 1831.07 279.03 1803.16 334.92 1802.99 335.02 1775 363.01 1775.01 363 1802.84 335.01 1803.04 335.02 1830.74"/>
    <polygon class="cls-2" points="474 2024.96 418.06 2025.05 417.98 1997.03 390 1997.01 390 1969.99 417.96 1970.02 418.03 1997 474.02 1997.01 474 2024.96"/>
    <polygon class="cls-6" points="278.88 1941.96 278.88 1969.99 223 1970.01 223.05 1942 278.88 1941.96"/>
    <rect class="cls-2" x="753" y="2274.95" width="28.07" height="55.05"/>
    <rect class="cls-2" x="837" y="1609" width="55.02" height="28.02"/>
    <polygon class="cls-2" points="389.89 1580.98 417.97 1580.98 418.01 1609.01 389.97 1609 389.89 1580.98"/>
    <rect class="cls-2" x="697" y="1580.87" width="28" height="28.13"/>
    <rect class="cls-2" x="1060" y="1719.87" width="28" height="28.13"/>
    <polygon class="cls-2" points="919.96 1858.82 891.99 1859.03 891.99 1831 920.06 1831.07 920.04 1802.99 947.9 1803.1 948.05 1830.97 919.94 1830.95 919.96 1858.82"/>
    <polygon class="cls-6" points="1059.74 1914.06 1032.04 1914.01 1032.24 1885.98 1059.92 1886.04 1059.74 1914.06"/>
    <polygon class="cls-2" points="558.07 1996.86 530.01 1997.03 529.99 1970.01 502.01 1969.96 501.99 1942.03 473.94 1942.01 473.99 1913.99 501.87 1913.95 502.02 1941.98 529.98 1942.05 530.01 1969.99 558 1970.01 558.07 1996.86"/>
    <rect class="cls-2" x="1170.94" y="1941.98" width="28.06" height="28.1"/>
    <path class="cls-6" d="M1060,1997l-.02,27.76-28.12.27.09-27.78c9.05.05,18.18-.8,28.04-.25Z"/>
    <path class="cls-6" d="M1087.71,1969.92c-.07,9.45.68,17.93.21,27.08h-27.92s.25-27.08.25-27.08h27.46Z"/>
    <polygon class="cls-2" points="948.09 2163.98 920.02 2164.03 920.02 2136 947.99 2136.2 948.09 2163.98"/>
    <rect class="cls-2" x="390.07" y="2218.92" width="28.01" height="28.16" transform="translate(-1829.05 2636.39) rotate(-89.98)"/>
    <rect class="cls-2" x="669" y="2219" width="28" height="28"/>
    <polygon class="cls-6" points="948.01 2357.76 919.92 2358.02 920.17 2329.83 947.99 2330.02 948.01 2357.76"/>
    <rect class="cls-2" x="1198.95" y="1830.95" width="28.02" height="28.09" transform="translate(-632.41 3057.38) rotate(-89.98)"/>
    <polygon class="cls-7" points="781.29 1359.08 781 1332 809.01 1332.01 808.94 1358.93 781.29 1359.08"/>
    <polygon class="cls-6" points="558.06 1663.74 529.99 1663.93 530.2 1637 558.21 1637.19 558.06 1663.74"/>
    <polygon class="cls-6" points="1059.75 2191.97 1059.85 2219.17 1031.88 2219.12 1032 2192 1059.75 2191.97"/>
    <path class="cls-6" d="M892.11,2357.68c-9.66-.01-18.46,1.07-27.2.06l-.07-27.93,27.15.19.12,27.67Z"/>
    <path class="cls-6" d="M780.68,1775.11l-27.74.04.23-27.32,27.71.19c.74,9.39-.23,18.3-.2,27.09Z"/>
    <polygon class="cls-2" points="1115.98 2441.03 1088 2441.01 1088 2413.99 1116 2414 1115.98 2441.03"/>
    <path class="cls-6" d="M696.74,1747.91c-.07,9.65.78,18.42,0,27.15l-27.8-.09.02-26.99,27.77-.07Z"/>
    <rect class="cls-2" x="891.98" y="1554" width="28.02" height="27"/>
    <rect class="cls-2" x="920.52" y="1636.44" width="27.02" height="28.11" transform="translate(-717.04 2583.51) rotate(-89.96)"/>
    <polygon class="cls-6" points="837.08 1941.76 808.91 1941.66 808.99 1914 836.99 1914.01 837.08 1941.76"/>
    <polygon class="cls-1" points="808.99 1914 780.94 1913.88 780.96 1886.04 808.8 1886.04 808.99 1914"/>
    <polygon class="cls-6" points="780.96 1886.04 752.97 1885.99 752.99 1859.01 781.11 1858.84 780.96 1886.04"/>
  </g>
</svg>