<?xml version="1.0" encoding="UTF-8"?>
<svg id="Layer_1" xmlns="http://www.w3.org/2000/svg" version="1.1" viewBox="0 0 1080 1080">
  <!-- Generator: Adobe Illustrator 30.2.1, SVG Export Plug-In . SVG Version: 2.1.1 Build 1)  -->
  <defs>
    <style>
      .st0 {
        display: none;
        fill: #ececec;
      }

      .st1 {
        fill: #f4d03f;
      }

      .st2 {
        fill: #f81e1c;
      }
    </style>
  </defs>
  <path class="st0" d="M106.4,878.1V145.1h840v733H106.4ZM627.1,342c0-9.1.8-18.2.2-27.9h-28.6c0,.1-.2-28-.2-28h-29.1s0-56,0-56h-29s0-57,0-57h-29s0,57,0,57h-29s0,56,0,56h-28s0,28,0,28h-29s0,56,0,56h-29s0,29,0,29h-29s0,28,0,28h-29s0,28,0,28h-29s0,28,0,28h-29s0,28,0,28h-29s0,29,0,29h-29s0,28,0,28h-29s0,28,0,28h-28.8c0,0-.3,28-.3,28h-28.9c0,.1,0,198,0,198h58s0-29,0-29h29s0-28,0-28h28.9s0-28,0-28h29s0-28,0-28h58s0-28,0-28h28.9s0-29,0-29h29s0-28,0-28h29s0-28,0-28h29s0-28,0-28h28s0-57,0-57h29s0-28,0-28h29s0,28,0,28h29s0,29,0,29h29s0,56,0,56h29s0,28,0,28h29s0,28,0,28h29s0,29,0,29h29s0,28,0,28h58s0,27.9,0,27.9h28.9c0,0,0,28,0,28h29s0,28,0,28h29s0,29.1,0,29.1h58c0,0,0-198,0-198h-29c0,0,0-28,0-28h-29s0-28,0-28h-28.9s0-28,0-28h-29s0-29,0-29h-29s0-28,0-28h-29s0-28,0-28h-29s0-28,0-28h-29s0-28,0-28h-29s0-29,0-29h-29.1c.5-9.8-.2-19-.2-28.1Z"/>
  <g>
    <path class="st2" d="M598.7,314.2l-.3,27.9h-29s0-28,0-28h-29s0-56,0-56h-29s0,56,0,56h-29s0,28,0,28h-28s0,57,0,57h-29s0,28,0,28h-29s0,28,0,28h-29s0,28,0,28h-29s0,28,0,28h-29s0,29,0,29h-29s0,28,0,28h-29s0,28,0,28h-29s0,28,0,28h-29s0,28,0,28h-29s0,113,0,113h29s0-28,0-28h29s0-28,0-28h29s0-28,0-28h58s0-29,0-29h29s0-28,0-28h28.9s0-28,0-28h29s0-28,0-28h29s0-57,0-57h29s0-28,0-28h28s0-28,0-28h29s0-28,0-28h29s0,28,0,28h29s0,28,0,28h29s0,28,0,28h29s0,57,0,57h29s0,28,0,28h29s0,28,0,28h29s0,28,0,28h29s0,29,0,29h58s0,28,0,28h28.9s0,28,0,28h28.9s0,28,0,28h29s0-113,0-113h-29c0,0,0-28.1,0-28.1h-29s0-28,0-28h-29s0-28,0-28h-29s0-28,0-28h-29s0-29,0-29h-29s0-28,0-28h-28.9s0-28,0-28h-29s0-28,0-28h-29s0-57,0-57h-29s0-28,0-28h28.7c0,9.1.7,18.2.2,28h29.1s0,29,0,29h29s0,28,0,28h29s0,28,0,28h29s0,28,0,28h29s0,28,0,28h29s0,29,0,29h29s0,28,0,28h28.9s0,28,0,28h29s0,28,0,28h29c0,0,0,198,0,198h-58c0,0,0-29,0-29h-29s0-28,0-28h-29s0-28,0-28h-28.9c0,0,0-28,0-28h-58s0-28,0-28h-29s0-29,0-29h-29s0-28,0-28h-29s0-28,0-28h-29s0-56,0-56h-29s0-29,0-29h-29s0-28,0-28h-29s0,28,0,28h-29s0,57,0,57h-28s0,28,0,28h-29s0,28,0,28h-29s0,28,0,28h-29s0,29,0,29h-28.9s0,28,0,28h-58s0,28,0,28h-29s0,28,0,28h-28.9s0,28,0,28h-29s0,29,0,29h-58s0-197.9,0-197.9h28.9c0-.1.3-28.1.3-28.1h28.8c0,0,0-28,0-28h29s0-28,0-28h29s0-29,0-29h29s0-28,0-28h29s0-28,0-28h29s0-28,0-28h29s0-28,0-28h29s0-29,0-29h29s0-56,0-56h29s0-28,0-28h28s0-56,0-56h29s0-57,0-57h29s0,57,0,57h29s0,56,0,56h29.1s.2,28.1.2,28.1Z"/>
    <polygon class="st1" points="598.4 342.1 598.4 370.1 627.4 370.2 627.4 427.1 656.4 427.2 656.4 455.1 685.4 455.2 685.4 483.1 714.4 483.2 714.4 511.1 743.4 511.2 743.4 540.1 772.4 540.2 772.4 568.1 801.4 568.2 801.4 596.1 830.4 596.2 830.4 624.1 859.4 624.2 859.4 652.1 888.4 652.2 888.4 765.1 859.4 765.2 859.4 737.2 830.4 737.2 830.4 709.2 801.4 709.1 801.4 681.1 743.4 681.2 743.4 652.2 714.4 652.1 714.4 624.2 685.4 624.2 685.4 596.2 656.4 596.1 656.4 568.2 627.4 568.1 627.4 511.2 598.4 511.1 598.4 483.2 569.4 483.1 569.4 455.2 540.4 455.1 540.4 427.1 511.4 427.1 511.4 455.1 482.4 455.2 482.4 483.1 454.4 483.2 454.4 511.1 425.4 511.2 425.4 568.1 396.4 568.2 396.4 596.1 367.4 596.2 367.3 624.2 338.4 624.2 338.4 652.2 309.4 652.2 309.4 681.2 251.4 681.1 251.4 709.1 222.4 709.2 222.4 737.1 193.4 737.2 193.4 765.2 164.4 765.1 164.4 652.2 193.4 652.1 193.4 624.2 222.4 624.1 222.4 596.2 251.4 596.1 251.4 568.2 280.4 568.1 280.4 540.2 309.4 540.1 309.4 511.2 338.4 511.1 338.4 483.2 367.4 483.1 367.4 455.2 396.4 455.1 396.4 427.2 425.4 427.1 425.4 399.2 454.4 399.1 454.4 342.2 482.4 342.1 482.4 314.2 511.4 314.2 511.4 258.1 540.4 258.1 540.4 314.1 569.3 314.1 569.4 342.2 598.4 342.1"/>
    <path class="st2" d="M627.1,342h-28.7c0,.1.3-27.8.3-27.8h28.6c.5,9.6-.2,18.7-.2,27.8Z"/>
    <path class="st2" d="M628.1,397.6h-28.7c0,.1.3-27.8.3-27.8h28.6c.5,9.6-.2,18.7-.2,27.8Z"/>
  </g>
</svg>