<?xml version="1.0" encoding="UTF-8"?>
<svg id="Layer_1" data-name="Layer 1" xmlns="http://www.w3.org/2000/svg" viewBox="0 0 500 607.02">
  <defs>
    <style>
      .cls-1 {
        fill: #f5d13e;
      }

      .cls-2 {
        fill: #d40000;
      }
    </style>
  </defs>
  <path class="cls-2" d="M261.29,11.09c-.02,3.45-.74,6.89-.17,10.89l10.88.03.04,9.95,10.95.1v21.88s9.96.11,9.96.11l.09,10.9,10.91.09.1,10.91,10.94.1.02,20.89,10.94.1.09,10.91,10.91.09.09,10.91,10.94.1.02,21.89,10.87.12.18,10.93,20.93.03.03,20.93,10.94.1.1,10.95,21.89.02.18,10.93,10.82.11.09,10.9,10.91.09.09,10.91,10.91.09.09,10.91,10.9.09.11,9.9,9.9.11.1,10.94,21.89.02.1,10.96,10.95.04v282l-10.95.04-.1,10.96h-21.89s-.13,10.95-.13,10.95l-20.86.07-.15,9.96-32.84.03-.14,10.95-21.87.07-.23,11.08-64.74-.11-.08,11.01h-152l-.08-11.01-64.74.08-.23-11.06h-21.89s-.12-11.01-.12-11.01h-32.87s-.13-9.99-.13-9.99l-20.89-.02-.11-10.98H11.05s-.1-10.97-.1-10.97l-10.95-.04v-282l10.95-.04.1-10.96,21.89-.02.1-10.94,9.9-.1.1-9.9,10.9-.09.09-10.91,21.94-.04.02-21.94,10.94-.1.1-10.95,21.89-.02.1-10.95,10.94-.1.03-20.93,20.93-.03.1-10.94,10.95-.1.02-21.89,10.95-.1.09-10.91,10.91-.09.09-10.91,10.94-.1.02-20.89,10.94-.1.09-10.91,10.91-.09.09-10.9,9.95-.11v-21.88s10.96-.1,10.96-.1l.1-9.91,10.94-.1.02-21.97,22.13.25c-.52,4.5.16,7.66.15,10.85ZM217,184.02l-.04,10.94-9.96.13v21.88s-10.96.1-10.96.1l-.09,10.91-10.9.09-.11,9.88-10.9.11-.09,10.91-10.91.09-.09,10.91-10.91.09-.09,10.91-10.95.1-.02,21.93-20.93.03-.11,9.95-10.94.1-.02,21.92-21.93.03-.1,10.96-10.91.09-.09,10.91-10.91.09-.1,10.95h-21.88s-.11,9.95-.11,9.95l-9.96.15v65.8s9.97.07,9.97.07l.1-10.95h21.89s.1-10.96.1-10.96l10.91-.09.1-10.95,21.89-.02.1-10.95,10.91-.09.09-10.91,10.91-.09.09-10.9,9.9-.11.11-9.9,10.9-.09.09-10.91,10.91-.09.09-10.91,10.91-.09.09-10.9,10.82-.1.18-10.9,10.82-.12.18-10.89,10.9-.09.11-9.91,10.9-.09.09-10.9,9.91-.1.09-10.92,10.97.02v21.89s-10.96.1-10.96.1l-.1,9.9-9.9.11-.09,10.9-10.91.09-.09,10.91-10.91.09-.09,10.91-10.91.09-.09,10.91-10.91.09-.09,10.91-10.9.09-.11,9.91-10.9.09-.09,10.91-10.91.09-.09,10.9-9.91.11-.09,10.9-10.91.09-.1,10.95-21.89.02-.1,10.95-10.91.09-.09,10.91-10.9.09-.11,9.95h-21.89s-.1,10.95-.1,10.95l-9.96.14v64.89s20.96.04,20.96.04l.1-10.97,10.9-.09.11-9.95,21.89-.02.1-10.95,10.91-.09.09-10.91,10.91-.09.09-10.91,10.91-.09.1-10.94,20.89-.02.1-10.96h10.91s.09,10.93.09,10.93h10.93s0-10.93,0-10.93l-10.92-.08v-9.91s10.91-.09,10.91-.09l.09-10.91,10.91-.09.09-10.91,10.91-.09.09-10.91,10.91-.09.09-10.91,10.91-.09.09-10.9,9.91-.1.09-10.9,10.9-.09.1-9.91,10.94-.1.02-21.89,21.97-.05.02,21.93,10.94.1.1,9.91,10.9.09.09,10.9,9.91.1.09,10.9,10.91.09.09,10.91,10.91.09.09,10.91,10.91.09.09,10.91,10.91.09.09,10.91,10.91.09v9.91s-10.92.08-10.92.08v10.93s10.93,0,10.93,0l.09-10.94h10.91s.1,10.96.1,10.96l20.89.02.1,10.94,10.91.09.09,10.91,10.91.09.1,10.96,21.9.03.1,10.92,10.9.09.11,9.91,10.9.09.1,10.96,20.96-.04v-64.88s-9.96-.15-9.96-.15l-.1-10.94h-21.89s-.12-9.96-.12-9.96l-10.9-.09-.09-10.91-10.91-.09-.1-10.95-21.89-.02-.1-10.95-10.91-.09-.09-10.9-9.91-.1-.09-10.9-10.91-.09-.09-10.91-10.9-.09-.1-9.91-10.9-.09-.09-10.91-10.91-.09-.09-10.91-10.91-.09-.09-10.91-10.91-.09-.09-10.91-10.91-.09-.09-10.9-9.9-.11-.11-9.9-10.94-.1-.02-21.88-10.95-.11-.1-10.96h-21.89s-.1,10.98-.1,10.98l-10.96-.02v-21.9s10.96-.1,10.96-.1l.1-10.96h21.89s.1,10.96.1,10.96l10.91.09.09,10.91,10.95.1v21.89s9.96.11,9.96.11l.09,10.9,10.9.09.11,9.91,10.9.09.09,10.91,10.91.09.09,10.91,10.91.09.09,10.91,10.91.09.09,10.91,10.91.09.09,10.91,10.9.09.11,9.9,9.9.11.09,10.9,10.91.09.09,10.91,10.91.09.1,10.95,21.89.02.1,10.95,10.91.09.1,10.95h21.89s.1,10.97.1,10.97l9.97-.07v-65.8s-9.96-.15-9.96-.15l-.11-9.9-10.9-.09-.1-10.95-21.89-.02-.1-10.95-10.91-.09-.09-10.91-10.91-.09-.09-10.91-10.91-.09-.09-10.91-10.9-.09-.11-9.9-9.9-.11-.09-10.9-10.91-.09-.09-10.91-10.91-.09-.09-10.91-10.91-.09-.09-10.91-10.91-.09-.09-10.91-10.9-.09-.11-9.91-10.94-.1-.02-21.88-10.95-.11-.09-10.9-9.91-.1-.09-10.9-10.91-.09-.09-10.91-10.95-.1v-20.95s10.95.03,10.95.03l.1,9.93,10.9.09.09,10.9,9.91.11.09,10.9,10.91.09.09,10.91,10.95.1.02,21.89,10.95.1.09,10.91,10.9.09.11,9.91,10.9.09.09,10.91,10.91.09.09,10.91,10.91.09.09,10.9,9.91.1.09,10.9,10.91.09.09,10.91,10.9.09.1,9.91,10.9.09.09,10.91,10.91.09.09,10.91,10.91.09.1,10.95h21.89s.1,10.97.1,10.97l9.97-.07v-75.78s-9.96-.16-9.96-.16l-.11-10.94-21.89-.02-.1-10.95-10.91-.09-.09-10.91-10.9-.09-.11-9.91-10.9-.09-.09-10.91-10.91-.09-.09-10.91-10.91-.09-.09-10.9-9.91-.11-.09-10.9-10.91-.09-.09-10.91-10.91-.09-.09-10.91-10.94-.1-.03-20.93-21.97-.03-.02-21.93-10.94-.1-.09-10.91-10.91-.09-.09-10.9-9.95-.11-.02-20.89-10.98-.11-.02-21.89-10.99-.11v-21.9s-10.96-.02-10.96-.02l-.09,10.92-10.94.1-.07,21.89-10.9.1-.09,10.91-10.94.1-.02,20.89-9.95.11-.09,10.9-10.91.09-.09,10.91-10.95.1-.02,21.89-10.94.1-.17,10.91c-3.83.48-7.09-.04-10.82.06l-.11,9.94-10.9.09-.09,10.91-10.91.09-.09,10.91-10.91.09-.09,10.9-9.91.1-.09,10.87-10.91.11-.09,10.92-10.91.09-.09,10.91-10.9.09-.11,9.91-10.9.09-.09,10.91-10.91.09-.09,10.91-10.91.09-.1,10.94-20.95.05v75.84s9.97.08,9.97.08l.1-10.96h21.89s.1-10.96.1-10.96l10.91-.09.09-10.91,10.91-.09.09-10.91,10.9-.09.11-9.91,10.9-.09.09-10.91,10.91-.09.09-10.9,9.91-.11.09-10.9,10.91-.09.09-10.91,10.91-.09.09-10.91,10.9-.09.11-9.91,10.9-.09.09-10.91,10.91-.09.09-10.91,10.94-.1.02-21.94h20.98ZM184.99,455.02v11h11.01v-11h-11.01ZM326,455.02h-22v11h22v-11ZM293.02,509.13l.04,10.88,21.92.02.04,22h32.98s0-22.01,0-22.01h-32.93s-.11-10.96-.11-10.96l-10.9-.09-.12-9.95-20.89-.02-.18-10.92-10.83-.11v-10.97s20.92-.01,20.92-.01v-10.99s-20.88.28-20.88.28l-.14,10.74h-32.87s-.12-11.02-.12-11.02h-31.88s-.04,10.96-.04,10.96l9.98.11v21.92s-20.95.03-20.95.03l-.11,9.94-10.9.09-.11,10.96h-32.93s0,22,0,22h32.93s.11-10.96.11-10.96l10.91-.09.09-10.9,10.82-.11.19-10.92,20.88-.02.15-10h54.83s.14,9.95.14,9.95l9.97.17Z"/>
  <polygon class="cls-2" points="261 152.02 239 152.02 239.01 130.01 260.99 130.01 261 152.02"/>
  <polygon class="cls-2" points="239 152.02 239 172.96 228.05 173.06 227.95 183.98 217 184.02 217 162.07 227.95 161.97 228.05 152 239 152.02"/>
  <g>
    <path class="cls-1" d="M261,152.02v-22s-21.99,0-21.99,0v22s-10.95-.02-10.95-.02l-.1,9.97-10.95.1v21.94s-20.98.01-20.98.01l-.02,21.94-10.94.1-.09,10.91-10.91.09-.09,10.91-10.9.09-.11,9.91-10.9.09-.09,10.91-10.91.09-.09,10.91-10.91.09-.09,10.9-9.91.11-.09,10.9-10.91.09-.09,10.91-10.9.09-.11,9.91-10.9.09-.09,10.91-10.91.09-.09,10.91-10.91.09-.1,10.94h-21.89s-.1,10.97-.1,10.97l-9.97-.08v-75.84s20.96-.05,20.96-.05l.1-10.94,10.91-.09.09-10.91,10.91-.09.09-10.91,10.9-.09.11-9.91,10.9-.09.09-10.91,10.91-.09.09-10.92,10.91-.11.09-10.87,9.91-.1.09-10.9,10.91-.09.09-10.91,10.91-.09.09-10.91,10.9-.09.11-9.94c3.73-.1,6.99.42,10.82-.06l.17-10.91,10.94-.1.02-21.89,10.95-.1.09-10.91,10.91-.09.09-10.9,9.95-.11.02-20.89,10.94-.1.09-10.91,10.9-.1.07-21.89,10.94-.1.09-10.92,10.95.02v21.9s11,.11,11,.11l.02,21.89,10.98.11.02,20.89,9.95.11.09,10.9,10.91.09.09,10.91,10.94.1.02,21.93,21.97.03.03,20.93,10.94.1.09,10.91,10.91.09.09,10.91,10.91.09.09,10.9,9.91.11.09,10.9,10.91.09.09,10.91,10.91.09.09,10.91,10.9.09.11,9.91,10.9.09.09,10.91,10.91.09.1,10.95,21.89.02.11,10.94,9.96.16v75.78s-9.97.07-9.97.07l-.1-10.95h-21.89s-.1-10.96-.1-10.96l-10.91-.09-.09-10.91-10.91-.09-.09-10.91-10.9-.09-.1-9.91-10.9-.09-.09-10.91-10.91-.09-.09-10.9-9.91-.1-.09-10.9-10.91-.09-.09-10.91-10.91-.09-.09-10.91-10.9-.09-.11-9.91-10.9-.09-.09-10.91-10.95-.1-.02-21.89-10.95-.1-.09-10.91-10.91-.09-.09-10.9-9.91-.11-.09-10.9-10.9-.09-.1-9.93-10.95-.03Z"/>
    <polygon class="cls-1" points="261 152.02 261 172.96 271.95 173.06 272.05 183.97 282.95 184.06 283.05 194.96 292.95 195.07 293.05 205.97 303.99 206.08 304.01 227.96 314.95 228.06 315.05 237.97 325.95 238.06 326.05 248.97 336.95 249.06 337.05 259.97 347.95 260.06 348.05 270.97 358.95 271.06 359.05 281.97 369.95 282.06 370.05 292.96 379.95 293.07 380.05 302.97 390.95 303.06 391.05 313.97 401.95 314.06 402.05 324.97 412.95 325.06 413.05 335.97 423.95 336.06 424.05 347.01 445.95 347.02 446.05 357.97 456.95 358.06 457.05 367.96 467.01 368.11 467.01 433.91 457.04 433.97 456.95 423.02 435.05 423.01 434.95 412.06 424.05 411.97 423.95 401.02 402.05 401.01 401.95 390.06 391.05 389.97 390.95 379.06 380.05 378.97 379.95 368.07 370.05 367.96 369.95 358.06 359.05 357.97 358.95 347.06 348.05 346.97 347.95 336.06 337.05 335.97 336.95 325.06 326.05 324.97 325.95 314.06 315.05 313.97 314.95 303.06 304.05 302.97 303.95 293.06 293.05 292.97 292.95 282.07 283.01 281.95 282.99 260.07 272.05 259.97 271.95 249.06 261.05 248.97 260.95 238.01 239.05 238.01 238.95 248.97 227.99 249.07 227.99 270.96 238.96 270.98 239.06 260.01 260.94 260.01 261.05 270.97 271.99 271.08 272.01 292.96 282.95 293.06 283.05 302.96 292.95 303.07 293.05 313.97 303.95 314.06 304.05 324.97 314.95 325.06 315.05 335.97 325.95 336.06 326.05 346.97 336.95 347.06 337.05 357.97 347.95 358.06 348.05 367.97 358.95 368.06 359.05 378.97 369.95 379.06 370.05 389.96 379.95 390.07 380.05 400.97 390.95 401.06 391.05 412.01 412.95 412.02 413.05 422.97 423.95 423.06 424.05 433.97 434.95 434.06 435.06 444.01 456.95 444.02 457.05 454.96 467.01 455.11 467.01 519.98 446.05 520.02 445.95 509.06 435.05 508.97 434.95 499.06 424.05 498.97 423.95 488.05 402.05 488.02 401.95 477.06 391.05 476.97 390.95 466.06 380.05 465.97 379.95 455.03 359.05 455.01 358.96 444.05 348.04 444.05 347.96 454.98 337.03 454.98 337.03 444.06 347.96 443.97 347.96 434.06 337.04 433.97 336.95 423.06 326.05 422.97 325.95 412.06 315.05 411.97 314.95 401.06 304.05 400.97 303.95 390.06 293.05 389.97 292.95 379.07 283.05 378.96 282.95 368.06 272.05 367.97 271.95 358.06 261.01 357.96 260.99 336.03 239.01 336.08 238.99 357.97 228.05 358.06 227.95 367.97 217.05 368.06 216.95 378.96 207.05 379.07 206.95 389.97 196.05 390.06 195.95 400.97 185.05 401.06 184.95 411.97 174.05 412.06 173.95 422.97 163.05 423.06 162.96 433.97 152.05 434.06 152.04 443.97 162.97 444.06 162.97 454.98 152.04 454.98 151.96 444.05 141.04 444.05 140.95 455.01 120.05 455.03 119.95 465.97 109.05 466.06 108.95 476.97 98.05 477.06 97.95 487.97 87.05 488.06 86.95 499.01 65.06 499.02 64.95 508.97 54.05 509.06 53.95 520.03 32.99 519.99 32.99 455.11 42.95 454.96 43.05 444.02 64.94 444.01 65.05 434.06 75.95 433.97 76.05 423.06 86.95 422.97 87.05 412.02 108.95 412.01 109.05 401.06 119.95 400.97 120.05 390.07 129.95 389.96 130.05 379.06 140.95 378.97 141.05 368.06 151.95 367.97 152.05 358.06 162.95 357.97 163.05 347.06 173.95 346.97 174.05 336.06 184.95 335.97 185.05 325.06 195.95 324.97 196.05 314.06 206.95 313.97 207.05 303.07 216.95 302.96 217.05 293.06 228.01 292.96 228.01 271.07 217.04 271.05 216.95 281.96 207.05 282.07 206.95 292.97 196.05 293.06 195.95 302.97 185.05 303.06 184.87 313.95 174.05 314.07 173.87 324.97 163.05 325.07 162.95 335.97 152.05 336.06 151.95 346.97 141.05 347.06 140.95 357.97 130.05 358.06 129.95 367.96 120.05 368.07 119.95 378.97 109.05 379.06 108.95 389.97 98.05 390.06 97.95 401.01 76.05 401.02 75.95 411.97 65.05 412.06 64.95 423.01 43.05 423.02 42.96 433.97 32.99 433.91 32.99 368.11 42.95 367.96 43.06 358.02 64.95 358.01 65.05 347.06 75.95 346.97 76.05 336.06 86.95 335.97 87.05 325.01 108.99 324.99 109.01 303.07 119.95 302.97 120.06 293.02 140.99 293 141.01 271.07 151.95 270.97 152.05 260.06 162.95 259.97 163.05 249.06 173.95 248.97 174.04 238.06 184.95 237.95 185.05 228.06 195.95 227.97 196.05 217.06 206.99 216.96 207.01 195.08 216.96 194.95 217 184.02 227.95 183.98 228.05 173.06 239 172.96 239 152.02 261 152.02"/>
  </g>
  <path class="cls-2" d="M272,22.02l-10.88-.03c-.56-3.99.15-7.44.17-10.89l10.67-.04.04,10.96Z"/>
  <g>
    <polygon class="cls-1" points="293.02 509.13 283.06 508.96 282.91 499.01 228.08 499.01 227.94 509.01 207.05 509.03 206.87 519.95 196.05 520.07 195.95 530.97 185.05 531.06 184.94 542.03 152.01 542.02 152.01 520.02 184.94 520.02 185.05 509.06 195.95 508.97 196.06 499.03 217 499 217.01 477.08 207.03 476.97 207.06 466 238.94 466 239.06 477.03 271.94 477.03 272.08 466.29 292.95 466 292.95 476.99 272.05 477 272.03 487.97 282.87 488.08 283.05 499.01 303.94 499.03 304.05 508.97 314.95 509.06 315.06 520.02 347.99 520.02 347.99 542.03 315.02 542.03 314.98 520.03 293.06 520.01 293.02 509.13"/>
    <rect class="cls-1" x="304" y="455.02" width="22" height="11"/>
    <rect class="cls-1" x="184.99" y="455.02" width="11.01" height="11"/>
  </g>
</svg>