<?xml version="1.0" encoding="UTF-8"?>
<svg id="Layer_1" data-name="Layer 1" xmlns="http://www.w3.org/2000/svg" viewBox="0 0 500 674.01">
  <defs>
    <style>
      .cls-1 {
        fill: #f5d13e;
      }

      .cls-2 {
        fill: #d40000;
      }
    </style>
  </defs>
  <path class="cls-2" d="M500,261.01v283l-10.95.04-.19,9.9-10.81.11-.11,10.82-10.89.18-.09,10.9-10.02.12c.32,4.01-.15,7.52-.23,11.02l-10.68-.03-.06,10.79-21.95.16-.08,22.08-21.88-.05-.12,9.96-21.88.02-.1,10.94-9.91.1-.1,10.94h-21.89s-.13,11.02-.13,11.02l-54.85-.02-.08,11.01h-76l-.03-10.92c-3.64-.36-6.72.06-9.83.06l-54.96-.08-.23-11.02-21.8.04-.19-11.02-9.9-.11-.1-10.94h-21.88s-.12-10-.12-10l-21.92-.02-.03-21.96-21.92-.07-.11-10.9-10.91-.1-.1-10.89-9.91-.11-.09-10.9-10.89-.18-.11-10.83-10.9-.11-.1-9.89-10.95-.03v-283l10.95-.04.09-10.91,10.91-.09.1-10.94,20.89-.02.1-10.94,10.9-.09.1-10.95,21.93-.02.03-20.93,10.94-.12.09-10.89,10.91-.09.09-10.9,10.82-.11.18-10.89,10.82-.11.18-10.89,9.82-.13.18-10.88,10.9-.09.09-10.91,10.91-.09.09-10.91,10.9-.09.1-9.91,10.9-.09.09-10.91,10.91-.09.09-10.91,10.95-.1.02-21.89,10.95-.1.09-10.9,9.95-.11v-21.88s11-.11,11-.11l.02-20.89,10.94-.1.1-10.96h21.89s.1,10.96.1,10.96l10.94.1.02,20.89,10.98.11v21.89s9.96.11,9.96.11l.09,10.9,10.95.1.02,21.89,10.95.1.09,10.91,10.91.09.09,10.91,10.9.09.11,9.91,10.9.09.09,10.91,10.91.09.09,10.91,10.91.09.09,10.9,9.91.11.09,10.9,10.9.09.11,10.83,10.89.17.11,10.82,10.89.18.1,10.91,10.94.1.03,20.93,21.93.02.1,10.94,10.91.09.1,10.94,20.89.02.1,10.94,10.91.09.09,10.92,10.95.04ZM76,326.01v21.94s-10.95.1-10.95.1l-.1,10.95-21.89.02-.1,10.94-9.96.15v64.8s9.97.06,9.97.06l.1-10.95h21.89s.1-10.96.1-10.96l10.83-.11.18-10.89,10.9-.09.09-10.91,10.91-.09.1-10.94h21.79s.21-9.96.21-9.96l9.9-.11.09-10.9,10.91-.09.09-10.91,10.91-.09.09-10.91,10.91-.09.09-10.91,10.91-.09.09-10.91,10.91-.09.09-10.91,10.91-.09.09-10.91,10.9-.09.1-9.9,9.95-.05v20.94s-9.96.12-9.96.12l-.09,10.9-10.91.09-.09,10.91-10.91.09-.09,10.91-10.91.09-.09,10.91-10.91.09-.09,10.91-10.91.09-.09,10.91-10.9.09-.11,9.91-10.9.09-.1,10.94-20.89.03-.19,10.91-10.86.12-.02,21.93-21.93.02-.19,10.93-10.82.11-.1,10.94-21.89.02-.2,10.91-9.87.19v75.79s9.96.16,9.96.16l.09,10.9,10.9.09.11,9.91,10.9.09.09,10.91,10.91.09.09,10.91,10.91.09.09,10.91,10.91.09.1,10.95,21.89.02.19,10.93,9.82.12.1,10.93h21.88s.14,10.01.14,10.01h43.85s.18,11,.18,11h107.78s.18-11.02.18-11.02h43.85s.14-9.99.14-9.99h21.88s.1-10.95.1-10.95l9.91-.1.1-10.94,21.89-.02.1-10.95,10.91-.09.09-10.91,10.91-.09.09-10.91,10.91-.09.09-10.91,10.9-.09.1-9.91,10.9-.09.09-10.9,9.96-.16v-75.82s-9.96-.15-9.96-.15l-.1-10.92-21.89-.02-.1-10.95-10.91-.09-.1-10.93-21.93-.03-.03-21.97-21.93-.02-.1-10.94-9.91-.11-.09-10.9-10.9-.09-.11-9.91-10.9-.09-.09-10.91-10.91-.09-.09-10.91-10.91-.09-.09-10.91-10.91-.09-.09-10.91-10.91-.09-.09-10.91-10.91-.09-.09-10.9-9.96-.11v-20.94s9.95.03,9.95.03l.1,9.92,10.9.09.09,10.91,10.91.09.09,10.91,10.91.09.09,10.91,10.91.09.09,10.91,10.91.09.09,10.91,10.91.09.09,10.91,10.91.09.09,10.9,9.9.1.11,9.94,21.89.02.1,10.95,10.91.09.09,10.91,10.91.09.09,10.91,10.9.09.24,10.87,21.76.1.1,10.94,9.97-.07v-64.8s-9.96-.15-9.96-.15l-.1-10.94-21.89-.02-.1-10.95-10.95-.1v-21.95s21.94-.02,21.94-.02l.1,10.98,10.91.1.09,10.9,9.97-.07v-64.79s-9.96-.16-9.96-.16l-.09-10.9-10.91-.09-.09-10.91-10.91-.09-.09-10.91-10.91-.09-.09-10.91-10.91-.09-.09-10.91-10.91-.09-.09-10.91-10.91-.09-.09-10.91-10.9-.09-.1-9.9-9.9-.11-.09-10.89-10.91-.09-.09-10.91-10.91-.09-.09-10.91-10.91-.09-.09-10.91-10.91-.09-.09-10.91-10.91-.09-.09-10.91-10.94-.1-.02-20.89-10.94-.1-.09-10.9-9.95-.11-.02-21.89-10.95-.1-.09-10.91-10.91-.09-.1-10.95h-21.9s-.1,10.95-.1,10.95l-10.91.09-.09,10.91-10.95.1v21.88s-9.96.12-9.96.12l-.09,10.9-10.94.1-.02,20.89-10.94.1-.09,10.91-10.91.09-.09,10.91-10.91.09-.09,10.91-10.91.09-.09,10.91-10.91.09-.09,10.91-10.91.09-.09,10.9-9.9.11-.11,9.9-10.9.09-.09,10.91-10.91.09-.09,10.91-10.91.09-.09,10.91-10.91.09-.09,10.91-10.91.09-.09,10.91-10.91.09-.1,10.94-20.95.05v75.84s9.97.08,9.97.08l.09-10.92,10.82-.08.19-10.96h21.95Z"/>
  <polygon class="cls-2" points="283 185.01 272.05 184.97 271.95 174.05 261.05 173.96 260.95 163 239.05 163 238.95 173.95 228.04 174.06 227.96 184.97 217 185.01 217 163.06 227.95 162.96 228.05 152.05 238.95 151.96 239.05 141 260.94 141 261.05 151.96 271.95 152.05 272.05 162.96 283 163.06 283 185.01"/>
  <polygon class="cls-2" points="217 185.01 217 205.95 207.04 206.06 206.95 216.97 196 217.01 196 185.02 217 185.01"/>
  <polygon class="cls-2" points="304 217.01 293.05 216.98 292.95 206.06 283 205.95 283 185.01 292.96 185.06 293.05 195.96 304 196.06 304 217.01"/>
  <polygon class="cls-2" points="196 217.01 196 238.99 174.05 239.02 173.95 249.96 163.01 250.06 162.98 271.99 141.05 272.02 140.95 282.96 130.01 283.06 129.98 303.99 109.05 304.02 108.95 314.96 98.05 315.05 97.94 326.01 76 326.01 76.01 304.02 97.95 304 98.05 293.05 108.95 292.96 109.05 283.05 119.95 282.96 120.05 272.06 129.95 271.95 130.05 261.05 140.95 260.96 141.05 250.05 151.95 249.96 152.05 239.05 162.95 238.96 163.05 228.05 173.95 227.96 174.06 217.01 196 217.01"/>
  <polygon class="cls-2" points="424 326.01 402.05 326.01 401.95 315.05 391.05 314.96 390.95 304.02 370.02 303.99 369.99 283.06 359.05 282.96 358.95 272.02 337.02 271.99 336.99 250.06 326.05 249.96 325.95 239.02 304.01 238.99 304 217.01 325.95 217.01 326.05 227.96 336.95 228.05 337.05 238.96 347.95 239.05 348.05 249.96 358.95 250.05 359.05 260.96 369.95 261.05 370.05 271.95 379.95 272.06 380.05 282.96 390.95 283.05 391.05 292.96 401.95 293.05 402.05 303.96 412.95 304.06 413.14 314.96 423.97 315.04 424 326.01"/>
  <path class="cls-2" d="M283,283.01c-4.04-.01-7.25.23-10.95-.06l-.12-10.95h-43.86s-.12,10.98-.12,10.98l-10.95.04v-21.94s10.95-.1,10.95-.1l.09-10.91,10.91-.09.1-10.96h21.89s.1,10.96.1,10.96l10.91.09.09,10.91,10.96.1v21.95Z"/>
  <g>
    <polygon class="cls-1" points="424 326.01 423.97 315.04 413.14 314.96 412.95 304.06 402.05 303.96 401.95 293.05 391.05 292.96 390.95 283.05 380.05 282.96 379.95 272.06 370.05 271.95 369.95 261.05 359.05 260.96 358.95 250.05 348.05 249.96 347.95 239.05 337.05 238.96 336.95 228.05 326.05 227.96 325.95 217.01 304 217.01 304 196.06 293.05 195.96 292.96 185.06 283 185.01 283 163.06 272.05 162.96 271.95 152.05 261.05 151.96 260.94 141 239.05 141 238.95 151.96 228.05 152.05 227.95 162.96 217 163.06 217 185.01 196 185.02 196 217.01 174.06 217.01 173.95 227.96 163.05 228.05 162.95 238.96 152.05 239.05 151.95 249.96 141.05 250.05 140.95 260.96 130.05 261.05 129.95 271.95 120.05 272.06 119.95 282.96 109.05 283.05 108.95 292.96 98.05 293.05 97.95 304 76.01 304.02 76 326.01 54.05 326.01 53.86 336.96 43.04 337.04 42.96 347.97 32.99 347.89 32.99 272.05 53.95 271.99 54.05 261.05 64.95 260.96 65.05 250.05 75.95 249.96 76.05 239.05 86.95 238.96 87.05 228.05 97.95 227.96 98.05 217.05 108.95 216.96 109.05 206.05 119.95 205.96 120.05 196.06 129.95 195.95 130.05 185.05 140.95 184.96 141.05 174.05 151.95 173.96 152.05 163.05 162.95 162.96 163.05 152.05 173.95 151.96 174.05 141.05 184.95 140.96 185.05 130.05 195.99 129.95 196.01 109.06 206.95 108.96 207.05 98.06 216.99 97.95 217.01 76.06 227.95 75.96 228.05 65.05 238.95 64.96 239.05 54.01 260.95 54.01 261.05 64.96 271.95 65.05 272.05 75.96 282.99 76.06 283.01 97.95 292.95 98.06 293.05 108.96 303.99 109.06 304.01 129.95 314.95 130.05 315.05 140.96 325.95 141.05 326.05 151.96 336.95 152.05 337.05 162.96 347.95 163.05 348.05 173.96 358.95 174.05 359.05 184.96 369.95 185.05 370.05 195.95 379.95 196.06 380.05 205.96 390.95 206.05 391.05 216.96 401.95 217.05 402.05 227.96 412.95 228.05 413.05 238.96 423.95 239.05 424.05 249.96 434.95 250.05 435.05 260.96 445.95 261.05 446.05 271.96 456.95 272.05 457.05 282.95 467.01 283.11 467.01 347.9 457.04 347.97 456.95 337.06 446.05 336.96 445.94 325.99 424 326.01"/>
    <polygon class="cls-1" points="283 185.01 283 205.95 292.95 206.06 293.05 216.98 304 217.01 304.01 238.99 325.95 239.02 326.05 249.96 336.99 250.06 337.02 271.99 358.95 272.02 359.05 282.96 369.99 283.06 370.02 303.99 390.95 304.02 391.05 314.96 401.95 315.05 402.05 326.01 424 326.01 424 347.95 434.95 348.05 435.05 359 456.95 359.02 457.05 369.95 467.01 370.1 467.01 434.9 457.04 434.97 456.94 424.03 435.19 423.93 434.95 413.05 424.05 412.96 423.95 402.05 413.05 401.96 412.95 391.05 402.05 390.96 401.95 380.02 380.06 380 379.95 370.06 370.05 369.95 369.95 359.05 359.05 358.96 358.95 348.05 348.05 347.96 347.95 337.05 337.05 336.96 336.95 326.05 326.05 325.96 325.95 315.05 315.05 314.96 314.95 304.05 304.05 303.96 303.95 293.05 293.05 292.96 292.95 283.04 283 283.01 283 261.06 272.05 260.96 271.95 250.05 261.05 249.96 260.94 239 239.05 239 238.95 249.96 228.05 250.05 227.95 260.96 217 261.06 217 283.01 207.05 283.06 206.95 292.96 196.05 293.05 195.95 303.96 185.05 304.05 184.95 314.96 174.05 315.05 173.95 325.96 163.05 326.05 162.95 336.96 152.05 337.05 151.95 347.96 141.05 348.05 140.95 358.96 130.05 359.05 129.95 369.95 120.05 370.06 119.84 380.02 98.06 380.02 97.95 390.96 87.05 391.05 86.95 401.96 76.05 402.06 75.87 412.95 65.05 413.06 64.95 424 43.05 424.01 42.96 434.96 32.99 434.9 32.99 370.1 42.95 369.95 43.05 359.02 64.95 359 65.05 348.05 76 347.95 76 326.01 97.94 326.01 98.05 315.05 108.95 314.96 109.05 304.02 129.98 303.99 130.01 283.06 140.95 282.96 141.05 272.02 162.98 271.99 163.01 250.06 173.95 249.96 174.05 239.02 196 238.99 196 217.01 206.95 216.97 207.04 206.06 217 205.95 217 185.01 227.96 184.97 228.04 174.06 238.95 173.95 239.05 163 260.95 163 261.05 173.96 271.95 174.05 272.05 184.97 283 185.01"/>
    <path class="cls-1" d="M283,283.01v20.94s9.95.11,9.95.11l.09,10.9,10.91.09.09,10.91,10.91.09.09,10.91,10.91.09.09,10.91,10.91.09.09,10.91,10.91.09.09,10.91,10.9.09.11,9.91,10.9.09.09,10.9,9.91.11.1,10.94,21.93.02.03,21.97,21.93.03.1,10.93,10.91.09.1,10.95,21.89.02.1,10.92,9.96.15v75.82s-9.96.16-9.96.16l-.09,10.9-10.9.09-.1,9.91-10.9.09-.09,10.91-10.91.09-.09,10.91-10.91.09-.09,10.91-10.91.09-.1,10.95-21.89.02-.1,10.94-9.91.1-.1,10.94h-21.88s-.14,10.01-.14,10.01h-43.85s-.18,11-.18,11h-107.78s-.18-11.01-.18-11.01h-43.85s-.14-9.99-.14-9.99h-21.88s-.1-10.95-.1-10.95l-9.82-.12-.19-10.93-21.89-.02-.1-10.95-10.91-.09-.09-10.91-10.91-.09-.09-10.91-10.91-.09-.09-10.91-10.9-.09-.11-9.91-10.9-.09-.09-10.9-9.96-.16v-75.79s9.87-.19,9.87-.19l.2-10.91,21.89-.02.1-10.94,10.82-.11.19-10.93,21.93-.02.02-21.93,10.86-.12.19-10.91,20.89-.03.1-10.94,10.9-.09.11-9.91,10.9-.09.09-10.91,10.91-.09.09-10.91,10.91-.09.09-10.91,10.91-.09.09-10.91,10.91-.09.09-10.91,10.91-.09.09-10.9,9.96-.12v-20.94s10.95-.04,10.95-.04l.12-10.98h43.86s.12,10.96.12,10.96c3.7.29,6.91.04,10.95.06ZM303.87,598.01l.19-11h21.88s.1-10.96.1-10.96l10.9-.09.11-10.96h32.88s.11-10.95.11-10.95l9.9-.1.11-9.94,21.93-.02.02-21.93,10.94-.1.09-10.91,10.96-.1v-21.89s-10.96-.1-10.96-.1l-.1-10.95-21.89-.02-.1-10.94-10.88-.18-.13-9.82-9.9-.1-.1-10.96h-21.89s-.11,11.01-.11,11.01h-21.88s-.12,9.99-.12,9.99h-21.88s-.1,11.02-.1,11.02h-20.9s0-11,0-11l20.89-.02.12-9.98h21.89s.11-11,.11-11l21.9-.02.02-10.95-10.92-.09-.1-10.95-21.89-.02-.1-10.95-10.94-.1-.02-21.93-20.98-.04v-31.96s-21.95-.03-21.95-.03l-.11-11h-21.89s-.11,11-.11,11l-21.94.03v31.96s-20.99.04-20.99.04l-.02,21.93-10.94.1-.1,10.95-21.89.02-.1,10.95-10.92.09.02,10.95h21.9s.11,11,.11,11h21.88s.12,10,.12,10l20.89.02v11s-20.9,0-20.9,0l-.11-11-21.88-.02-.12-9.99h-21.88s-.11-11.01-.11-11.01h-21.89s-.19,10.94-.19,10.94l-9.82.13-.1,9.9-10.9.09-.1,10.95-21.89.02-.1,10.95-10.96.1v21.89s10.96.1,10.96.1l.09,10.91,10.94.1.02,21.93,21.92.02.11,9.94,9.9.1.11,10.95h32.88s.11,10.95.11,10.95l10.91.09.1,10.95,21.89.02.17,11h107.76Z"/>
    <g>
      <path class="cls-2" d="M303.87,598.01h-107.76s-.17-11-.17-11l-21.89-.02-.1-10.95-10.91-.09-.11-10.96h-32.88s-.11-10.94-.11-10.94l-9.9-.1-.11-9.94-21.92-.02-.02-21.93-10.94-.1-.09-10.91-10.96-.1v-21.89s10.96-.1,10.96-.1l.1-10.95,21.89-.02.1-10.95,10.9-.09.1-9.9,9.82-.13.19-10.93h21.89s.11,11,.11,11h21.88s.12,10,.12,10l21.88.02.11,11h20.9s0-11,0-11l-20.89-.02-.12-9.98h-21.88s-.11-11-.11-11h-21.9s-.02-10.96-.02-10.96l10.92-.09.1-10.95,21.89-.02.1-10.95,10.94-.1.02-21.93,20.98-.04v-31.96s21.95-.03,21.95-.03l.11-11h21.89s.11,11,.11,11l21.94.03v31.96s20.99.04,20.99.04l.02,21.93,10.94.1.1,10.95,21.89.02.1,10.95,10.92.09-.02,10.95-21.9.02-.11,10.99h-21.89s-.12,10-.12,10l-20.89.02v11s20.9,0,20.9,0l.1-11h21.88s.12-9.99.12-9.99h21.88s.11-11.02.11-11.02h21.89s.1,10.96.1,10.96l9.9.1.13,9.82,10.88.18.1,10.94,21.89.02.1,10.95,10.96.1v21.89s-10.96.1-10.96.1l-.09,10.91-10.94.1-.02,21.93-21.93.02-.11,9.94-9.9.1-.11,10.95h-32.88s-.11,10.95-.11,10.95l-10.9.09-.1,10.95h-21.88s-.19,11.01-.19,11.01ZM260.97,500.01l.09,11h31.87s.04,10.95.04,10.95l-9.94.1v10.91s9.93,0,9.93,0l.09-10.92h10.91s.09,10.92.09,10.92l10.91.09.11,10.97h32.93s0-22,0-22l-21.95-.02-.11-11h-32.88s-.11-10.94-.11-10.94l-9.91-.11-.09-10.9-10.9-.09-.12-10.87-43.84-.1-.14,10.96-10.82.11-.18,10.89-9.9.11-.11,10.95h-32.88s-.11,10.99-.11,10.99l-21.95.02v21.99s32.94,0,32.94,0l.11-10.97,10.91-.09.09-10.92h10.91s.09,10.92.09,10.92h9.93s0-10.91,0-10.91l-9.94-.1.03-10.95h31.88s.11-11.01.11-11.01l21.92.02Z"/>
      <polygon class="cls-1" points="260.97 500.01 239.05 499.99 238.94 511.01 207.06 511 207.03 521.96 216.97 522.06 216.97 532.97 207.04 532.96 206.96 522.04 196.04 522.04 195.95 532.96 185.05 533.05 184.94 544.02 152 544.02 152 522.02 173.95 522 174.06 511 206.94 511.01 207.05 500.06 216.95 499.95 217.13 489.07 227.95 488.96 228.09 478 271.93 478.09 272.05 488.96 282.95 489.05 283.05 499.95 292.95 500.06 293.06 511.01 325.94 511 326.05 522 348 522.02 347.99 544.02 315.06 544.02 314.95 533.05 304.05 532.96 303.96 522.04 293.04 522.04 292.96 532.96 283.03 532.96 283.03 522.06 292.97 521.96 292.94 511 261.06 511.01 260.97 500.01"/>
    </g>
  </g>
</svg>